<svg xmlns="http://www.w3.org/2000/svg" id="Layer_1" viewBox="0 0 134.39 58.99"><defs><style>      .cls-1 {        fill-rule: evenodd;      }      .cls-1, .cls-2 {        fill: #002f65;      }    </style></defs><path id="Shield__x26__Scroll" class="cls-2" d="M24.47,45.49l-.35-.75-.49-1.01c-.37-.74-.97-1.17-1.69-1.24,1.6-2.8,2.76-6.18,2.76-10.09v-12.32c0-.08-.06-.14-.14-.14H.19c-.08,0-.14.06-.14.14v12.32c0,3.91,1.16,7.29,2.76,10.09-.71.08-1.31.51-1.69,1.24l-.48,1.01-.35.75c-.31.65-.65,2,.66,3.64,1.06,1.33,3.29,2.76,5.98,3.82l.13.05c.23.09.45.18.66.27-.22.22-.53.47-.77.66l-.22.18c-.05.04-.1.09-.15.13,0,0-.01,0-.02,0-.02.02-.03.03-.04.05-.22.24-.35.53-.35,1.02v2.36c0,.97,1.35,1.31,2.62,1.31h7.19c1.26,0,2.62-.34,2.62-1.31v-2.36c0-.49-.12-.78-.35-1.02-.02-.02-.02-.04-.04-.05,0,0-.01,0-.02,0-.05-.05-.09-.09-.15-.13l-.21-.18c-.24-.19-.55-.45-.77-.67.21-.09.43-.18.66-.27l.12-.05c2.68-1.06,4.92-2.49,5.98-3.82,1.31-1.65.98-2.99.66-3.64ZM.33,29.67h24.09v2.72c0,12.17-11.3,19.08-12.05,19.52-.75-.45-12.04-7.35-12.04-19.52v-2.72ZM22.9,43.41c.32.52.32,1.2.02,1.92-.05.12-.12.24-.19.36l-.87-1.26s-.08-.07-.14-.06c-.05,0-.1.05-.11.1-.07.22-.26.41-.54.53-.27.11-.57.12-.81.03.53-.71,1.05-1.48,1.53-2.29.04,0,.09,0,.13,0,0,0,0,0,0,0,.38.04.74.27.96.65ZM15.17,55.53l.16.16h-5.9l.15-.16c.34-.32.64-.59.64-1.33v-1.68c0-1.63-1.41-2.28-3.04-3.03-.57-.26-1.15-.52-1.74-.86-.54-.3-1.28-.79-1.97-1.37l1.29-1.87c3.43,4.41,7.48,6.77,7.55,6.81.04.02.1.02.14,0,.07-.04,4.12-2.4,7.55-6.81l1.29,1.87c-.69.57-1.44,1.06-1.97,1.37-.59.34-1.18.6-1.75.86-1.63.75-3.03,1.4-3.03,3.03v1.68c0,.74.3,1.02.63,1.33ZM3.25,47.07c-.4-.35-.77-.73-1.05-1.12.16-.24.66-.95.81-1.17.12.2.31.38.56.49.29.12.59.14.87.08l-1.19,1.72ZM20.31,45.36c.27.05.58.03.87-.08.26-.11.44-.29.57-.49.15.22.64.93.81,1.17-.28.39-.65.77-1.05,1.12l-1.19-1.72ZM.33,20.21h24.09v9.17H.33v-9.17ZM1.86,43.41c.22-.37.58-.61.96-.65,0,0,0,0,.01,0,.05,0,.09,0,.14,0,.48.81.99,1.58,1.53,2.29-.24.08-.54.08-.81-.04-.27-.11-.46-.3-.53-.53-.01-.05-.06-.09-.11-.1-.05,0-.11.01-.14.06l-.87,1.26c-.07-.12-.14-.24-.19-.36-.3-.72-.29-1.4.02-1.92ZM7.15,52.74l-.12-.05c-2.64-1.04-4.83-2.44-5.86-3.74-1.15-1.45-.98-2.62-.63-3.34l.35-.76.48-1s.01-.02.01-.03c-.09.4-.09.94.19,1.62.54,1.28,2.34,2.65,3.72,3.43.6.34,1.19.61,1.77.87,1.61.73,2.87,1.32,2.87,2.77v1.68c0,.17-.02.3-.05.41-.04-.18-.13-.35-.25-.49-.54-.61-1.44-.96-2.48-1.37ZM6.68,54.55s.01-.02.02-.03c0,0,0,0,.01-.01.06-.06.12-.13.2-.19l.21-.17c.29-.24.64-.53.87-.76.59.26,1.1.54,1.43.91.25.28.26.74.09.9h0s-.08.08-.13.12l-.36.36h-.25c-1.18.01-1.96-.4-2.13-.8-.05-.12-.04-.23.02-.33ZM18.29,55.11c0,.06.01.14.01.21v2.36c0,.76-1.26,1.03-2.33,1.03h-7.19c-1.08,0-2.33-.27-2.33-1.03v-2.36c0-.07,0-.15,0-.21.28.44,1.08.87,2.32.86h7.18c1.25,0,2.04-.42,2.32-.86ZM17.63,54.15l.21.17c.07.06.14.12.2.19,0,0,0,0,0,.01,0,.01.02.02.02.03.06.1.07.21.03.33-.17.4-.95.81-2.13.8h-.25l-.36-.36s-.08-.08-.13-.12h0c-.17-.16-.16-.62.09-.9.33-.37.83-.65,1.43-.91.23.24.58.53.87.76ZM23.58,48.95c-1.03,1.29-3.22,2.69-5.86,3.74l-.12.05c-1.04.41-1.95.77-2.49,1.37-.13.14-.21.31-.25.49-.03-.11-.05-.25-.05-.41v-1.68c0-1.45,1.27-2.03,2.87-2.77.58-.26,1.17-.53,1.77-.87,1.38-.78,3.19-2.15,3.72-3.43.28-.68.28-1.22.19-1.62,0,0,0,.01.01.03l.48,1,.35.76c.35.72.53,1.89-.63,3.34Z"></path><path id="Text" class="cls-1" d="M4.57,49.18c.03-.05.06-.1.09-.16-.2-.12-.39-.25-.59-.39-.03.05-.06.12-.08.17.05.03.09.06.14.1-.2.42-.39.83-.6,1.25-.05-.03-.1-.05-.14-.08-.03.05-.05.11-.08.16.32.22.65.42.99.61.1-.12.19-.24.28-.37,0,0,0-.01,0-.02-.05-.05-.1-.09-.14-.14-.07.08-.17.19-.25.23-.1-.04-.29-.14-.38-.23,0-.1.45-.95.59-1.25.05,0,.14.07.18.1h0ZM3.03,49.29c.08-.14.15-.29.23-.43-.04-.04-.08-.07-.12-.11-.03.04-.06.07-.08.11-.02,0-.22-.16-.26-.19.08-.16.18-.35.27-.54.09.07.28.21.32.29.03.07-.05.2-.07.28.01.04.11.08.14.11.07-.14.14-.3.2-.44-.3-.23-.59-.46-.88-.7-.03.05-.06.1-.09.15.04.04.09.07.13.12-.22.43-.39.78-.62,1.22-.04-.03-.09-.07-.13-.1-.02.05-.05.1-.08.15.29.26.57.5.88.73.09-.12.18-.25.26-.37,0,0,0-.01,0-.02-.04-.05-.09-.09-.14-.14-.03.05-.17.23-.2.23-.06,0-.31-.22-.36-.29,0-.09.21-.43.26-.53.08.06.2.14.25.22,0,.05-.03.1-.06.15.04.04.08.07.12.1h0ZM8.23,50.84c-.43-.24-.88-.43-1.33-.64-.07.14-.14.29-.22.43.06.03.12.07.18.1.06-.08.11-.16.17-.24.08-.01.22.06.32.1-.19.42-.39.87-.58,1.29-.07-.03-.13-.05-.2-.08-.03.05-.05.1-.07.15.23.1.46.21.69.31.02-.05.05-.1.07-.16-.07-.03-.13-.06-.2-.09.19-.42.4-.87.59-1.29.1.04.23.12.27.19-.03.09-.06.18-.09.27.01.03.14.07.19.09.07-.14.15-.28.21-.42h0ZM6.69,50.11c-.19-.09-.37-.18-.56-.28-.02.05-.05.1-.07.15.06.04.12.07.19.11-.2.43-.51,1.39-.94,1.1-.31-.2-.19-.45-.02-.81.1-.2.21-.42.3-.63.07.03.13.06.2.09.02-.05.04-.1.07-.15-.2-.11-.41-.22-.62-.32-.03.05-.05.1-.08.15.04.02.09.04.13.07,0,.08-.14.33-.19.43-.21.43-.41.77-.22,1.07.05.08.12.14.21.2.12.09.27.13.37.14.51.04.74-.64,1.02-1.23.04.02.09.04.14.07.03-.06.05-.1.07-.16h0ZM2.45,47.6s.07.06.11.09c.03-.06.05-.11.08-.16-.15-.14-.29-.28-.44-.42-.02.05-.06.11-.08.16.04.05.11.1.16.15-.14.16-.68.74-.72.78,0,0,0,0,0,0-.02-.04.19-1.24.22-1.35.05.05.1.11.15.16.03-.05.06-.1.09-.15-.16-.19-.3-.38-.44-.59-.03.04-.07.09-.11.14.03.04.05.09.08.14-.04.15-.28,1.66-.29,1.83.05.06.1.13.15.2.3-.21.95-.88,1.06-.99h0ZM18.11,51.01s0,0,0,0c.01-.26.04-.49.08-.75,0,0,0,0,.01-.01.1.21.18.39.28.6-.11.05-.25.12-.36.17h0ZM19.49,50.83c.01.07.07.22.04.27-.03.06-.41.26-.49.27-.09-.16-.15-.34-.22-.5.09-.04.36-.19.4-.19.03.05.05.09.08.14.06-.03.11-.06.16-.08-.07-.16-.14-.32-.21-.48-.05.03-.11.05-.16.08.01.05.03.1.04.16-.04.06-.31.19-.39.23-.11-.21-.18-.4-.28-.61.13-.06.34-.2.47-.22.06.04.12.14.17.21.05-.03.1-.07.16-.09,0-.04-.17-.33-.2-.39-.32.17-.72.37-1.04.53-.05.6-.11,1.2-.16,1.79-.05.03-.09.06-.14.09.02.05.04.1.06.15.18-.07.37-.17.55-.25-.02-.05-.04-.1-.07-.15-.06.02-.12.05-.18.08.01-.19.01-.44.02-.63.14-.06.3-.14.45-.21.08.16.15.37.23.52-.05.03-.11.05-.17.09.02.05.05.1.08.15.35-.16.78-.38,1.12-.55-.04-.14-.09-.28-.12-.42-.06.02-.12.04-.19.05h0ZM20.77,48.78s.08-.06.12-.09c-.03-.05-.05-.1-.08-.15-.17.11-.34.23-.52.35.03.05.05.1.08.15.05-.04.11-.07.17-.11.05.25.12.97.14,1.14,0,.07.01.13.02.2,0,0,0,0,0,0-.04.01-.17-.17-.21-.21l-.43-.49c-.07-.08-.14-.15-.2-.23.07-.04.13-.08.19-.12-.02-.05-.04-.11-.06-.16-.22.12-.43.25-.65.37.02.06.04.11.06.16.05-.02.09-.05.14-.07.08.1.18.19.27.29.2.21.4.42.6.62.09.08.17.17.26.26.07-.04.14-.09.22-.13-.03-.41-.05-.84-.08-1.25-.01-.17-.02-.38-.04-.55h0ZM15.88,57.33c0-.23,0-.46,0-.68.09-.01.2-.01.28.01.19.08.29.35.14.54-.08.11-.23.13-.42.13h0ZM16.67,57.88c-.07-.13-.18-.42-.32-.46,0,0,0,0,0-.01.3-.09.5-.55.2-.78-.23-.18-.71-.14-1.12-.14,0,.05,0,.11-.01.16h0c.06,0,.12,0,.18,0v1.37c-.06,0-.11.01-.17.01,0,.05,0,.11,0,.16h0s.66,0,.66,0c0-.05,0-.11,0-.16-.06,0-.12,0-.19,0,0-.18,0-.35,0-.53.07,0,.16-.01.22.01.16.07.26.54.39.68.03.03.36,0,.43,0v-.17s-.1-.01-.16-.01c-.05-.03-.07-.09-.1-.14h0ZM12.68,57.81c-.04.15-.16.21-.32.24-.07.01-.19,0-.22-.04-.02-.03-.02-.1-.02-.14,0-.08-.01-.42.01-.46.3,0,.63.08.54.41h0ZM12.13,56.65c.19-.01.34,0,.42.12.04.04.06.12.05.2-.04.22-.21.29-.47.27,0-.2,0-.39,0-.59h0ZM12.6,57.29h0v-.02c.3-.12.46-.52.11-.71-.24-.13-.72-.07-1.06-.07v.17c.06,0,.12,0,.18,0v1.38c-.06,0-.12,0-.18.01,0,.05,0,.11,0,.16.39,0,.88.05,1.13-.1.18-.1.34-.38.18-.62-.09-.13-.18-.13-.34-.2h0ZM10.36,57.33c0-.23,0-.46,0-.68.09-.01.2-.01.28.01.18.08.29.35.15.54-.09.11-.24.13-.43.13h0ZM11.14,57.88c-.07-.13-.18-.42-.32-.46,0,0,0,0-.01-.01.3-.09.5-.55.2-.78-.23-.18-.72-.14-1.13-.14,0,.05,0,.11,0,.16h0c.06,0,.11,0,.17,0v1.37c-.06,0-.11.01-.17.01,0,.05,0,.11,0,.16h0s.66,0,.66,0c0-.05,0-.11,0-.16-.06,0-.12,0-.19,0,0-.18,0-.35,0-.53.07,0,.16-.01.22.01.16.07.26.54.39.68.03.03.36,0,.43,0v-.17c-.05,0-.1-.01-.16-.01-.05-.03-.07-.09-.1-.14h0ZM8.48,57.55c.08-.23.16-.47.24-.7,0,0,.01,0,.02,0l.23.7h-.49ZM8.9,56.46c-.06-.02-.19-.01-.25,0-.19.52-.39,1.03-.58,1.55-.04.02-.11.02-.15.02v.16h.61v-.17c-.06,0-.13,0-.19,0,.03-.1.06-.2.09-.31.19,0,.39,0,.58,0,.05.08.09.21.11.31-.06,0-.12,0-.18,0v.16h.66v-.17c-.05,0-.1,0-.15,0-.18-.52-.36-1.04-.54-1.57h0ZM22.35,49.37c-.36.29-.75-.17-.85-.6-.05-.21-.04-.42.07-.58.04-.03.07-.07.1-.1.09-.06.17-.09.25-.09.44.02.86,1.01.43,1.37h0ZM22.49,47.95c-.23-.22-.51-.26-.89-.03-.06.05-.11.1-.17.15-.16.18-.23.39-.25.61,0,.09,0,.19.03.29.02.11.09.29.16.37.24.34.51.43.9.28.64-.25.7-1.22.23-1.67h0ZM14.27,58.06c-.45.07-.64-.5-.54-.94.04-.2.13-.39.31-.46.04,0,.09-.02.13-.03.11,0,.19,0,.26.05.4.24.38,1.29-.16,1.38h0ZM14.17,56.45c-.07.02-.15.03-.22.04-.22.07-.37.22-.48.4-.04.07-.07.17-.09.26-.02.1-.02.27,0,.38.08.41.29.63.71.69.69.11,1.13-.67.89-1.29-.13-.31-.37-.49-.81-.48h0Z"></path><path class="cls-2" d="M.25,29.51l24.29.03v2.71c0,12.18-11.42,19.33-12.17,19.78-.75-.45-12.14-7.42-12.14-19.59l.02-2.93ZM16.98,39.89c-2.22-2.69-5.39-1.35-5.42-1.34-.6.12-1.11.39-1.44.57l-.29.14s-.39.05-.39.05l-.67.09c-.34.07-.8.32-1.38.64l-.41.22c-.67.37-.83.66-.87.75-.14.08-.24.19-.26.32,0,.03,0,.05,0,.08,0,.11.04.22.13.3.13.39.47.31.48.32.02,0,.13-.03.13-.03.17-.06.34,0,.42.22v.05c-.03.07-.16.16-.23.19-.05.02-.09.04-.07.09.1.34.56.21.77.19h.06s.19-.04.19-.04c.26-.05.74-.06.98-.01.15.03.33.12.48.22-.03.05-.04.16-.1.18l-.19.04c-.3.05-.78.06-.94.46-.15.38-.06.68,0,.79l.11.14c.08.04.24-.1.38-.18.32-.19.26-.28.27-.32.02-.11.09-.16.12-.17,0,0,.06.03.06.03.2.09.68.23.94.09-.02.09-.1.39-.26.48-.13.07-.29.06-.44.06-.14,0-.25,0-.33.06-.12.09-.3.38-.35.46-.02.03-.02.07,0,.1l.03.05s.05.05.08.05h.92s.12,0,.12,0c.26,0,.59-.03.76-.19l.14-.11.47-.38.45-.4.21-.17s.08-.12.11-.19c.19.13.61.35.81.44-.08,0-.33.03-.57.12-.26.11-.41.24-.64.53-.01.01,0,.08-.03.06-.01.03-.03.03-.01.06.07.12.45.33.59.36.11.02.26-.01.42-.06l.25-.06c.1-.01,1.22-.04,1.98-.03l-.42.39c-.4.27-1.03.65-1.7,1.21-.72.6-1.25,1.39-1.25,1.95,0,.08-.09.18-.07.24.04.14.16.32.45.35,1.45.16,2.29-.74,2.98-1.49l.18-.19c.48-.52.84-1.13,1.08-1.54.1-.17.2-.35.24-.38.69-.48,1.52-1.73,1.71-3.1.14-1.05-.12-2-.75-2.77ZM22.58,31.35h-.54l-.53-.34h0s-.05-.03-.08-.03h-.69c-.14,0-.25-.08-.4-.19-.23-.17-.56-.4-1.14-.4-.65,0-.98.25-1.14.45-.15-.21-.48-.45-1.12-.45-.58,0-.9.23-1.14.4-.16.11-.26.19-.4.19h-.69s-.07.01-.09.04l-.52.34h-.54c-.08,0-.14.06-.14.14v4.74c0,.07.06.13.14.13h3.69c.08.08.28.23.57.28.14.03.39.02.51,0,.29-.05.48-.2.56-.28h3.69c.08,0,.14-.06.14-.13v-4.74c0-.07-.07-.14-.14-.14ZM11.08,31.33h-.53l-.52-.33s-.06-.04-.09-.04h-.69c-.13,0-.25-.08-.4-.19-.24-.18-.56-.41-1.13-.41-.66,0-.98.25-1.13.46-.16-.21-.48-.46-1.13-.46-.58,0-.9.23-1.13.41-.16.11-.27.19-.4.19h-.69s-.07.01-.1.04l-.52.33h-.53c-.08,0-.14.06-.14.14v4.74c0,.08.06.14.14.14h3.68c.09.08.28.23.58.28.14.02.39.02.51,0,.29-.05.47-.2.56-.28h3.68c.08,0,.14-.06.14-.14v-4.74c0-.08-.06-.14-.14-.14Z"></path><g id="Beaver"><g><path class="cls-2" d="M17.04,39.84c-2.26-2.73-5.48-1.37-5.51-1.35-.61.12-1.13.39-1.47.57l-.3.14-.4.05-.68.08c-.36.08-.82.33-1.4.65l-.41.23c-.68.37-.84.67-.88.76-.14.08-.24.19-.27.32,0,.02,0,.05,0,.07,0,.11.05.23.13.31.13.39.5.43.52.43.02,0,.13-.03.13-.03.18-.06.29-.08.37.14v.05c-.04.07-.17.14-.24.17-.05.02-.08.07-.06.12.1.34.58.28.79.26h.06s.2-.03.2-.03c.26-.04.74-.13.98-.08.15.03.33.12.49.22-.03.05-.08.1-.14.12l-.2.04c-.3.05-.75.13-.92.53-.15.38-.05.69,0,.8l.14.18c.08.03.26-.06.41-.14.32-.19.34-.31.35-.35.02-.11.09-.16.12-.17,0,0,.07.03.07.03.19.08.58.25.84.11-.02.1-.07.23-.23.32-.14.07-.3.07-.45.06-.14,0-.25,0-.33.06-.12.1-.35.48-.4.56-.02.03-.02.07,0,.1l.03.05s.05.05.09.05h.93s.13,0,.13,0c.26,0,.62.02.8-.14l.14-.12.5-.41.49-.4.22-.17s.07-.1.1-.18c.2.13.39.23.59.32-.08,0-.23.02-.47.11-.27.11-.49.33-.63.62-.01.02,0,.04,0,.06-.01.02-.01.05,0,.08.07.13.46.34.59.37.12.03.27-.01.42-.05l.26-.06c.09,0,1.09,0,1.86,0l-.42.3c-.4.27-1.02.69-1.7,1.25-.74.61-1.26,1.49-1.26,2.05,0,.07,0,.14.03.2.04.14.16.32.46.36,1.47.16,2.35-.79,3.06-1.55l.18-.19c.49-.52.86-1.15,1.11-1.56.1-.17.21-.35.24-.38.7-.49,1.54-1.75,1.74-3.14.14-1.06-.12-2.02-.76-2.8ZM9.71,43.87c-.16.16-.55-.01-.72-.08l-.14-.05c-.13,0-.28.14-.31.34,0,.03-.07.09-.14.14-.02-.03-.05-.09-.06-.17-.02-.13,0-.3-.04-.32-.04-.02-.22.29-.12.61-.06.03-.11.05-.14.06-.03-.04-.09-.17-.09-.37,0-.1.02-.22.07-.35.12-.3.5-.36.77-.41l.23-.05c.12-.04.2-.12.24-.2.12.08.21.17.24.22.07.1.17.42.23.62,0,0-.01,0-.02.01ZM12.49,45.11s-.29.07-.29.07c-.12.03-.26.07-.33.06,0,0-.02,0-.03-.01.04-.07.12-.19.24-.28.21-.15.49-.23.43-.26-.1-.05-.35-.02-.52.04-.22.08-.33.25-.41.36-.07-.04-.13-.08-.16-.11.12-.25.29-.42.52-.5.31-.13.41-.09.41-.09.12.02.96.16,1.13.16,0,0,.01,0,.02,0,.03.02.07.05.11.07.38.19.81.25,1.02.27-.02.07-.04.14-.09.23-.38,0-1.91-.02-2.05,0ZM17.61,42.61c-.18,1.28-.98,2.54-1.65,3-.06.05-.14.17-.3.44-.24.41-.6,1.02-1.08,1.53l-.18.2c-.71.77-1.52,1.64-2.89,1.49-.16-.02-.25-.09-.29-.22-.12-.41.33-1.34,1.17-2.04.68-.56,1.29-.97,1.69-1.24l.51-.36s.07-.08.1-.12c.01,0,.02-.02.03-.04.12-.2.16-.43.16-.44,0-.03,0-.05-.02-.08-.02-.02-.04-.03-.07-.03,0,0-.59-.03-1.05-.26-.35-.17-.58-.47-.75-.92-.22-.62.11-1.04.43-1.44.25-.31.48-.6.42-.95,0-.05-.06-.09-.11-.08-.05,0-.08.05-.08.1h0s0,.06,0,.08c0,.24-.18.47-.39.73-.25.31-.54.69-.54,1.18,0,.14.02.29.08.45.1.29.23.5.39.68-.35-.09-.86-.27-1.31-.56-.02-.01-.04-.01-.06-.01.06-.41,0-1-.03-1.23,0-.05-.05-.09-.11-.09-.05,0-.09.05-.08.11.07.6.08,1.3-.04,1.41,0,0-.21.17-.21.17l-.5.41-.49.4-.15.12c-.12.11-.46.09-.66.09h-.13s-.15,0-.33,0c.05-.1.08-.21.05-.24-.06-.05-.24.14-.34.24h-.2c.11-.17.24-.37.3-.41h.2c.16-.01.37,0,.54-.1.29-.16.33-.42.35-.5.02-.13-.18-.77-.29-.93-.12-.18-.64-.54-1.02-.63-.28-.06-.78.03-1.06.08l-.16.03h-.08c-.12.02-.39.04-.51-.06.08-.04.18-.11.22-.2v-.2c-.15-.41-.47-.31-.61-.27l-.08.02s-.21-.03-.33-.28l.19-.11s.06-.09.04-.13c-.03-.05-.08-.07-.13-.04l-.19.1s-.03-.09-.02-.13c.01-.08.08-.15.19-.2.02-.01.05-.03.05-.06,0,0,.11-.31.8-.68l.41-.23c.57-.31,1.02-.56,1.35-.63l1.08-.13.34-.16c.33-.17.84-.44,1.43-.55.05-.02,3.14-1.32,5.3,1.29.61.74.86,1.65.72,2.65Z"></path><path class="cls-2" d="M8.59,39.9c-.1-.05-.21-.05-.31-.02-.2.07-.26.28-.15.33.1.05.16-.06.21-.07.02,0,.06-.03.12,0,.07.03.07.08.07.09,0,.02,0,.12.1.14.09.02.28-.31-.04-.47Z"></path><path class="cls-2" d="M6.89,41.2c-.13.29.22.65.34.59.12-.06-.16-.31-.08-.47.08-.18.69-.44.67-.54,0-.1-.81.15-.93.41Z"></path><path class="cls-2" d="M14.16,46.47c-.28-.02-.54-.05-.57.08-.01.13.28.17.57.18.2,0,.55-.04.53-.15-.02-.12-.34-.1-.53-.11Z"></path><path class="cls-2" d="M13.47,47.11c-.34-.01-.66-.04-.68.08-.02.13.33.17.68.18.24,0,.66-.04.63-.15-.03-.12-.41-.1-.63-.11Z"></path><path class="cls-2" d="M12.87,47.76c-.32,0-.62-.04-.64.08-.02.12.31.15.64.16.22,0,.62-.03.6-.14-.02-.11-.39-.1-.6-.11Z"></path><path class="cls-2" d="M12.32,48.44c-.24-.01-.46-.04-.47.07-.02.11.23.14.47.14.17,0,.46-.03.44-.13-.02-.09-.29-.08-.44-.09Z"></path><path class="cls-2" d="M7.08,40.85l.07-.03c.07-.03.11-.11.09-.18-.03-.08-.1-.12-.18-.09l-.08.03c-.07.03-.11.11-.09.18.03.07.11.12.18.09Z"></path><path class="cls-2" d="M11.46,39.34s-.08-.05-.12-.04l-.78.26c-.07.03-.09.13-.06.21.03.07.12.13.19.1l.73-.41s.06-.08.03-.12Z"></path><path class="cls-2" d="M11.53,40.15s.06-.07.05-.12c-.02-.04-.07-.06-.11-.06l-.61.09c-.08.02-.11.11-.1.19.02.07.1.15.18.13l.58-.24Z"></path><path class="cls-2" d="M11.5,40.71l-.48-.02c-.07,0-.11.09-.11.16,0,.07.07.15.14.14l.48-.1s.07-.06.06-.11c-.01-.04-.06-.07-.1-.07Z"></path><path class="cls-2" d="M11.4,41.41l-.36-.08c-.06,0-.11.06-.11.13,0,.06.04.14.1.14l.37-.03s.08-.04.08-.09c0-.04-.05-.07-.08-.07Z"></path><path class="cls-2" d="M14.66,38.92c-.08-.02-.15.03-.17.1-.02.08.03.16.11.17,0,0,.42.13.73.26.06.02.13,0,.16-.05.03-.05.01-.13-.04-.15-.36-.19-.76-.33-.77-.33Z"></path><path class="cls-2" d="M14.82,39.59c-.07-.02-.14.02-.15.09-.02.07.03.14.09.16,0,0,.31.08.55.18.05.02.11,0,.14-.04.03-.05,0-.11-.05-.14-.32-.17-.57-.25-.59-.25Z"></path><path class="cls-2" d="M14.85,40.21c-.05,0-.11.02-.12.08-.01.06.02.11.08.13,0,0,.28.08.38.12.05.02.1,0,.13-.04.03-.05,0-.1-.04-.12-.29-.15-.37-.16-.42-.16Z"></path><path class="cls-2" d="M14.82,40.76s-.1.02-.11.07c-.01.05.02.1.07.11,0,0,.17.04.25.07.05.02.09,0,.12-.04.02-.04,0-.09-.04-.12-.09-.05-.24-.1-.28-.1Z"></path><path class="cls-2" d="M16.7,40.39c-.29-.28-.43-.37-.45-.38-.07-.04-.15-.02-.19.05-.04.07-.01.16.05.2,0,0,.16.08.43.3.05.04.12.04.16,0,.04-.04.04-.12,0-.16Z"></path><path class="cls-2" d="M16.13,40.66c-.07-.03-.14,0-.18.05-.03.06,0,.14.05.18,0,0,.1.03.31.19.05.03.11.03.15,0,.04-.04.03-.11,0-.15-.27-.24-.31-.26-.32-.27Z"></path><path class="cls-2" d="M15.95,41.2c-.05-.02-.11-.01-.14.03-.03.05,0,.11.04.15,0,0,.1.06.19.13.04.03.09.04.13,0,.04-.04.04-.1,0-.13-.04-.04-.16-.15-.21-.17Z"></path><path class="cls-2" d="M15.73,41.64s-.1-.02-.13.02c-.03.04-.02.1.03.13,0,0,.03.02.1.07.03.03.08.04.12,0,.04-.03.04-.08,0-.12-.06-.08-.08-.1-.12-.11Z"></path><path class="cls-2" d="M17.07,41.75s.08.06.13.03c.04-.02.06-.08.03-.13-.03-.05-.08-.15-.12-.19-.04-.03-.11-.04-.15,0-.04.04-.04.11,0,.15,0,0,.05.05.11.14Z"></path><path class="cls-2" d="M16.79,41.86s-.09-.04-.13,0c-.04.04-.04.09,0,.13.04.04.06.05.06.06.04.04.08.05.12.03.04-.02.05-.08.03-.12-.02-.04-.04-.08-.08-.11Z"></path></g></g><g id="Right_Book"><g><path class="cls-2" d="M22.71,31.25h-.55l-.54-.35h0s-.06-.03-.09-.03h-.71c-.14,0-.25-.08-.41-.2-.25-.18-.58-.42-1.17-.42-.68,0-1.01.27-1.16.47-.17-.22-.49-.47-1.16-.47-.59,0-.93.24-1.17.42-.16.11-.27.2-.41.2h-.71s-.07.01-.09.04l-.54.35h-.55c-.08,0-.14.06-.14.14v4.91c0,.08.06.14.14.14h3.78c.08.08.28.23.59.29.15.03.4.02.52,0,.3-.05.49-.21.57-.29h3.78c.08,0,.14-.06.14-.14v-4.91c0-.08-.07-.14-.14-.14ZM18.23,31.01s.15-.47,1.02-.47c.5,0,.76.19.99.36.18.13.35.26.58.26h.57v4h-.58c-.19,0-.39-.09-.63-.19-.3-.13-.63-.27-1.02-.27-.44,0-.77.25-.93.4v-4.08ZM14.78,31.16h.57c.23,0,.4-.12.58-.26.23-.17.5-.36,1-.36.87,0,1.02.49,1.02.51,0,0,0,3.67,0,4.04-.16-.15-.49-.4-.93-.4-.39,0-.72.14-1.02.27-.24.1-.44.19-.64.19h-.58v-4ZM14.18,31.49c.05-.04.2-.13.32-.21v4.01c0,.08.06.14.14.14h.72c.25,0,.49-.11.75-.21.28-.12.58-.25.91-.25.47,0,.82.41.82.41.03.03.07.05.11.05h.14s0,0,0,0h.14s.08-.02.11-.05c0,0,.35-.41.83-.41.33,0,.62.13.91.25.26.11.5.21.75.21h.72c.08,0,.14-.06.14-.14v-4.01c.12.08.26.17.32.21v4.08h-3.2s-.07.01-.1.04c0,0-.21.22-.52.26h-.14c-.32-.03-.54-.26-.54-.26-.03-.03-.06-.04-.1-.04h-3.2v-4.08ZM22.57,36.16h-3.7s-.08.02-.11.05c0,0-.16.19-.46.24-.09.02-.31.02-.42,0-.31-.05-.47-.24-.47-.24-.03-.03-.07-.05-.11-.05h-3.7v-4.62h.3v4.16c0,.08.06.14.14.14h3.28c.09.08.34.27.67.31h.2c.32-.04.56-.22.65-.31h3.29c.08,0,.14-.06.14-.14v-4.16h.29v4.62Z"></path><path class="cls-2" d="M15.4,31.87c.07,0,.33-.02.64-.16l.23-.11.44-.18c.26-.07.53-.04.62-.02-.03,0-.05-.04-.05-.08,0-.03.04-.06.07-.05,0,0-.33-.07-.67.02l-.47.19-.23.11c-.29.13-.52.15-.59.15-.03,0-.06.03-.06.07,0,.04.03.07.07.06Z"></path><path class="cls-2" d="M15.4,32.72c.07,0,.33-.02.64-.16l.23-.11.44-.18c.26-.07.53-.04.62-.02.04,0,.07-.01.08-.05,0-.03-.02-.07-.05-.07,0,0-.33-.07-.67.02l-.47.19-.23.11c-.29.13-.52.15-.59.15-.03,0-.06.03-.06.06,0,.04.03.06.07.06Z"></path><path class="cls-2" d="M15.4,33.56c.07,0,.33-.02.64-.16l.23-.11.44-.18c.26-.07.53-.04.62-.02.04,0,.07-.02.08-.05,0-.03-.02-.07-.05-.07,0,0-.33-.07-.67.02l-.47.19-.23.11c-.29.13-.52.15-.59.15-.03,0-.06.03-.06.07,0,.03.03.06.07.05Z"></path><path class="cls-2" d="M16.04,34.25l.23-.11.44-.18c.26-.07.53-.03.62-.02-.03,0-.05-.04-.05-.07,0-.04.04-.06.07-.05,0,0-.33-.06-.67.02l-.47.18-.23.11c-.29.13-.52.15-.59.15-.03,0-.06.03-.06.07,0,.04.03.06.07.06.07,0,.33-.02.64-.16Z"></path><path class="cls-2" d="M18.81,31.4c.08-.02.36-.05.62.02l.44.18.23.11c.32.14.57.16.64.16.04,0,.06-.02.06-.06,0-.03-.03-.06-.06-.07-.06,0-.29-.02-.59-.15l-.23-.11-.47-.19c-.34-.09-.67-.02-.67-.02-.03,0-.06.04-.05.08,0,.04.04.06.08.05Z"></path><path class="cls-2" d="M18.81,32.25c.08-.02.36-.05.62.02l.44.18.23.11c.32.14.57.16.64.16.04,0,.06-.03.06-.06,0-.03-.03-.06-.06-.06-.06,0-.3-.02-.59-.15l-.23-.11-.46-.19c-.34-.08-.67-.02-.67-.02-.03,0-.06.04-.05.07,0,.04.04.06.08.05Z"></path><path class="cls-2" d="M18.81,33.1c.08-.02.36-.05.62.02l.44.18.23.11c.32.14.57.16.64.16.04,0,.06-.03.06-.05,0-.04-.03-.07-.06-.07-.06,0-.29-.02-.59-.15l-.23-.11-.47-.19c-.27-.07-.56-.04-.67-.02-.03,0-.06.04-.05.07,0,.03.04.06.08.05Z"></path><path class="cls-2" d="M19.87,34.14l.23.11c.32.14.57.16.64.16.04,0,.06-.02.06-.06,0-.03-.03-.06-.06-.07-.06,0-.3-.02-.59-.15l-.23-.11-.46-.18c-.27-.07-.56-.05-.67-.02-.03,0-.06.04-.05.08,0,.04.04.06.08.05.08-.01.36-.05.62.02l.44.18Z"></path></g></g><g id="Left_Book"><g><path class="cls-2" d="M3.93,31.87c.07,0,.32-.02.64-.16l.23-.11.44-.18c.25-.07.53-.04.61-.02-.03,0-.05-.04-.05-.08,0-.03.04-.06.07-.05,0,0-.33-.07-.67.02l-.47.19-.23.11c-.3.13-.53.15-.59.15-.04,0-.07.03-.06.07,0,.04.03.07.07.06Z"></path><path class="cls-2" d="M3.93,32.72c.07,0,.32-.02.64-.16l.24-.11.44-.18c.26-.07.53-.04.61-.02.04,0,.07-.01.08-.05,0-.03-.02-.07-.05-.07,0,0-.33-.07-.67.02l-.46.19-.23.11c-.29.13-.53.15-.59.15-.04,0-.07.03-.06.06,0,.04.03.06.07.06Z"></path><path class="cls-2" d="M3.93,33.56c.07,0,.32-.02.64-.16l.23-.11.44-.18c.25-.07.53-.04.61-.02.04,0,.07-.02.08-.05,0-.03-.02-.07-.05-.07,0,0-.33-.07-.67.02l-.47.19-.23.11c-.29.13-.53.15-.59.15-.04,0-.07.03-.06.07,0,.03.03.06.07.05Z"></path><path class="cls-2" d="M3.93,34.41c.07,0,.33-.02.64-.16l.24-.11.44-.18c.25-.07.53-.03.61-.02-.03,0-.05-.04-.05-.07,0-.04.04-.06.07-.05,0,0-.33-.06-.67.02l-.46.18-.23.11c-.29.13-.53.15-.59.15-.04,0-.07.03-.06.07,0,.04.03.06.07.06Z"></path><path class="cls-2" d="M7.39,31.33s-.01.07-.04.08c.08-.02.36-.05.61.02l.44.18.23.11c.32.14.57.16.64.16.03,0,.06-.02.06-.06,0-.03-.02-.06-.06-.07-.06,0-.3-.02-.59-.15l-.23-.11-.47-.19c-.34-.09-.67-.02-.67-.02.04,0,.07.02.07.05Z"></path><path class="cls-2" d="M7.34,32.25c.08-.02.35-.05.61.02l.44.18.23.11c.32.14.57.16.64.16.03,0,.06-.03.06-.06,0-.03-.02-.06-.06-.06-.06,0-.3-.02-.59-.15l-.23-.11-.46-.19c-.34-.08-.67-.02-.67-.02-.03,0-.06.04-.05.07,0,.04.04.06.08.05Z"></path><path class="cls-2" d="M7.96,33.11l.44.18.23.11c.32.14.57.16.64.16.03,0,.06-.03.06-.05,0-.04-.02-.07-.06-.07-.06,0-.3-.02-.59-.15l-.23-.11-.46-.19c-.34-.09-.67-.02-.67-.02-.03,0-.06.04-.05.07,0,.03.04.06.08.05.08-.02.36-.05.61.02Z"></path><path class="cls-2" d="M8.4,34.14l.23.11c.32.14.57.16.64.16.03,0,.06-.02.06-.06,0-.03-.02-.06-.06-.07-.06,0-.3-.02-.59-.15l-.23-.11-.46-.18c-.34-.09-.67-.02-.67-.02.04,0,.07.02.07.05,0,.03-.01.07-.04.07.08-.01.36-.05.61.02l.44.18Z"></path><path class="cls-2" d="M11.22,31.27h-.55l-.54-.35s-.06-.04-.09-.04h-.71c-.14,0-.26-.08-.41-.2-.24-.18-.58-.42-1.17-.42-.67,0-1.01.26-1.16.47-.16-.21-.49-.47-1.16-.47-.6,0-.93.24-1.17.42-.16.11-.27.2-.41.2h-.71s-.08.02-.1.04l-.53.35h-.55c-.08,0-.14.07-.14.14v4.91c0,.08.06.14.14.14h3.78c.09.08.28.24.59.29.15.03.4.02.52,0,.3-.05.49-.21.58-.29h3.78c.08,0,.14-.06.14-.14v-4.91c0-.08-.06-.14-.14-.14ZM6.74,31.02s.15-.48,1.01-.48c.5,0,.77.19,1,.36.18.13.35.25.58.25h.56v4h-.58c-.19,0-.4-.09-.63-.19-.3-.13-.63-.27-1.02-.27-.44,0-.77.25-.92.4v-4.08ZM3.29,31.16h.57c.23,0,.4-.12.58-.25.24-.17.5-.36,1-.36.86,0,1.01.49,1.02.51,0,0,0,3.67,0,4.04-.16-.15-.49-.4-.92-.4-.4,0-.73.15-1.03.27-.24.1-.44.19-.63.19h-.58v-4ZM2.69,31.49c.06-.03.2-.13.32-.2v4.01c0,.08.06.14.14.14h.72c.25,0,.49-.1.75-.22.28-.12.57-.25.91-.25.47,0,.82.41.82.41.03.03.07.05.11.05h.14s0,0,0,0h.14s.08-.02.11-.05c0,0,.35-.41.82-.41.34,0,.62.13.91.25.25.11.5.22.74.22h.72c.08,0,.14-.06.14-.14v-4.01c.12.08.26.17.32.2v4.08h-3.2s-.07.02-.1.05c0,0-.22.22-.53.26h-.14c-.31-.03-.54-.26-.54-.26-.03-.03-.06-.05-.1-.05h-3.2v-4.08ZM11.08,36.18h-3.7s-.08.02-.11.05c0,0-.16.18-.46.24-.09.02-.31.02-.42,0-.31-.05-.47-.24-.47-.24-.03-.03-.06-.05-.11-.05h-3.7v-4.63h.29v4.16c0,.08.06.14.14.14h3.28c.1.08.34.27.68.3h.2c.33-.04.56-.22.65-.3h3.29c.08,0,.14-.06.14-.14v-4.16h.29v4.63Z"></path></g></g><g id="Crown"><g><path class="cls-2" d="M12.34,26.68c-1.81,0-3.74.44-3.74,1.24,0,.37.41.66,1.02.87.06.02.25.07.26.04,0,0-.22-.11-.22-.11-.55-.25-.76-.56-.76-.8,0-.45,1.47-.95,3.45-.95s3.44.5,3.44.95c0,.23-.2.54-.74.79,0,0-.21.09-.22.11-.02.03.24-.03.24-.03.6-.21,1-.5,1-.87,0-.8-1.92-1.24-3.73-1.24Z"></path><path class="cls-2" d="M16.61,25.29c-.17.21-.52.83-.57,1.02,0,0,0,.02,0,.02,0,0-.01,0-.01,0-.15-.08-.34-.18-.59-.27-.79-.29-1.91-.46-3.08-.46h-.01c-1.17,0-2.29.17-3.07.46-.25.09-.44.19-.59.27,0,0-.02,0-.02,0,0,0,0-.01,0-.02-.03-.19-.39-.8-.56-1.02-.05-.06-.11,0-.08.05.28.54.37.99.4,1.16.01.09.03.15.1.18.04.02.09.02.13,0,.17-.11.38-.23.73-.36.75-.28,1.84-.44,2.97-.44h.01c1.14,0,2.22.16,2.98.44.35.13.56.26.73.36.04.03.09.03.14,0,.07-.03.08-.09.1-.18.03-.17.11-.62.39-1.16.03-.05-.03-.11-.08-.05Z"></path><path class="cls-2" d="M12.61,26.27c0-.14-.11-.26-.25-.26s-.26.12-.26.26.12.25.26.25.25-.11.25-.25Z"></path><path class="cls-2" d="M10.82,26.41c0-.14-.11-.25-.25-.25s-.26.11-.26.25.11.25.26.25.25-.11.25-.25Z"></path><path class="cls-2" d="M8.99,27.19c.12-.07.16-.22.1-.34-.07-.12-.22-.16-.35-.1-.12.06-.16.22-.1.34.07.12.23.16.35.1Z"></path><path class="cls-2" d="M9.83,26.62c0-.07-.06-.13-.13-.13-.08,0-.14.06-.14.13s.06.14.14.14.13-.07.13-.14Z"></path><path class="cls-2" d="M11.59,26.31c0-.07-.06-.13-.13-.13s-.13.06-.13.13c0,.08.06.13.13.13.08,0,.13-.06.13-.13Z"></path><path class="cls-2" d="M14.4,26.41c0-.14-.11-.25-.25-.25s-.25.11-.25.25.11.25.25.25.25-.11.25-.25Z"></path><path class="cls-2" d="M15.96,26.75c-.12-.07-.28-.02-.35.1-.07.12-.02.28.1.34.12.07.28.03.35-.1.07-.12.03-.28-.1-.34Z"></path><path class="cls-2" d="M15.14,26.62c0-.07-.06-.13-.13-.13s-.13.06-.13.13.06.14.13.14.13-.07.13-.14Z"></path><path class="cls-2" d="M13.39,26.31c0-.07-.06-.13-.13-.13s-.13.06-.13.13c0,.08.06.13.13.13s.13-.06.13-.13Z"></path><circle class="cls-2" cx="12.35" cy="23.43" r=".26"></circle><path class="cls-2" d="M12.35,22.45c-.14,0-.26.11-.26.26s.11.26.26.26.26-.12.26-.26-.12-.26-.26-.26Z"></path><circle class="cls-2" cx="12.35" cy="21.99" r=".26"></circle><path class="cls-2" d="M11.1,22.31c.14,0,.26-.12.26-.26s-.12-.26-.26-.26-.26.11-.26.26.11.26.26.26Z"></path><path class="cls-2" d="M10.26,22.03c.14,0,.26-.12.26-.26s-.12-.26-.26-.26-.26.12-.26.26.12.26.26.26Z"></path><path class="cls-2" d="M9.39,21.84c.14,0,.26-.12.26-.26s-.12-.26-.26-.26-.26.11-.26.26.11.26.26.26Z"></path><path class="cls-2" d="M8.5,21.96c.14,0,.26-.11.26-.26s-.12-.26-.26-.26-.26.11-.26.26.12.26.26.26Z"></path><path class="cls-2" d="M7.73,22.45c.14,0,.26-.12.26-.26s-.12-.26-.26-.26-.26.12-.26.26.12.26.26.26Z"></path><path class="cls-2" d="M7.29,23.23c.14,0,.26-.12.26-.26s-.11-.25-.26-.25-.26.11-.26.25.12.26.26.26Z"></path><path class="cls-2" d="M7.56,23.87c0-.14-.12-.25-.26-.25s-.26.11-.26.25.12.26.26.26.26-.12.26-.26Z"></path><path class="cls-2" d="M7.62,24.46c-.14,0-.26.11-.26.26s.11.26.26.26.26-.12.26-.26-.12-.26-.26-.26Z"></path><path class="cls-2" d="M15.32,28.16c0-.63-1.95-.8-2.98-.8s-2.99.17-2.99.8,1.96.79,2.99.79,2.98-.16,2.98-.79ZM12.34,28.66c-1.79,0-2.7-.35-2.7-.5s.92-.51,2.7-.51,2.69.35,2.69.51-.91.5-2.69.5Z"></path><path class="cls-2" d="M11.94,21.19h.27v.29c0,.08.06.14.14.14s.14-.06.14-.14v-.29h.27c.08,0,.14-.06.14-.14s-.07-.14-.14-.14h-.27v-.26c0-.08-.06-.14-.14-.14s-.14.06-.14.14v.26h-.27c-.08,0-.14.06-.14.14s.06.14.14.14Z"></path><path class="cls-2" d="M8.58,25.4h0s0,.03,0,.03h0c.12.24.44.46.86.32.21-.07.43-.11.55-.35.07-.13.11-.29-.02-.47-.04-.04-.14-.1-.19-.08-.04.02-.07.1-.02.15.06.08.03.22-.08.28-.08.04-.17,0-.18-.03,0-.01.15-.12.01-.23-.11-.08-.38-.35-.01-.53.29-.14.52.26.55.31.03.06.06.04.05-.02-.06-.28-.3-.37-.36-.69-.04-.23.12-.42.21-.5.03-.03.08-.04.13-.02.12.05.33.16.37.38.07.32-.12.5-.06.78.01.05.05.06.05,0,0-.06.06-.52.38-.5.41.02.26.37.2.49-.08.16.1.19.1.2.02.03-.05.11-.15.11-.13-.01-.22-.13-.18-.22.02-.07-.04-.13-.08-.14-.06,0-.13.09-.14.15-.06.21.05.35.16.44.21.18.53.15.7.14.58-.06.62-.41.62-.41-.12.05-.39.15-.39.15,0,0-.02,0-.03,0-.05,0-.09-.04-.09-.09v-.56s.04-.09.09-.09c0,0,.02,0,.03,0l.4.16-.11-.32s0-.03,0-.04c0-.05.04-.09.09-.09h.67c.05,0,.09.04.09.09,0,.01,0,.02,0,.04l-.11.32.4-.16s.04,0,.04,0c.05,0,.09.04.09.09v.56s-.04.09-.09.09c-.01,0-.02,0-.03,0,0,0-.27-.1-.39-.15,0,0,.04.35.62.41.17.01.49.04.7-.14.11-.09.22-.22.16-.44-.02-.06-.09-.15-.15-.15-.04,0-.1.07-.08.14.03.09-.05.21-.19.22-.1,0-.17-.07-.16-.11,0-.01.19-.04.1-.2-.06-.12-.22-.47.2-.49.32-.01.38.44.39.5,0,.06.04.05.05,0,.06-.28-.13-.46-.06-.78.05-.22.25-.33.37-.38.05-.02.1,0,.13.02.09.08.25.27.2.5-.06.32-.3.41-.36.69-.02.06.02.08.05.02.03-.05.25-.45.55-.31.38.18.1.44,0,.53-.14.11.02.22.01.23,0,.03-.09.08-.18.03-.12-.06-.15-.2-.08-.28.04-.05.02-.14-.02-.15-.05-.03-.16.03-.19.08-.14.18-.09.34-.03.47.13.24.34.28.55.35.41.13.73-.08.85-.33h0s.01-.01.01-.01h0c.27-.37.9-1.24.9-2.02s-.69-1.37-1.59-1.37c-.4,0-.78.14-1.14.27-.4.14-.78.27-1.16.24v-.8c0-.08-.06-.14-.14-.14s-.14.06-.14.14v2.1h-1.01v-2.1c0-.08-.06-.14-.14-.14s-.14.06-.14.14v.8c-.39.04-.77-.09-1.17-.24-.36-.13-.73-.27-1.13-.27-.91,0-1.59.59-1.59,1.37s.64,1.65.9,2.02ZM14.41,22.55c.36-.13.69-.25,1.04-.25.74,0,1.31.46,1.31,1.08,0,.2-.06.42-.14.63-.03-.14-.09-.29-.2-.43-.24-.31-.62-.46-1.15-.46-.24-.25-.7-.42-1.17-.43-.04,0-.08,0-.12,0,.15-.04.29-.1.43-.15ZM13.15,22.81c.09,0,.18,0,.26,0-.1.04-.19.09-.26.15v-.15ZM13.16,23.34c.27-.33.7-.37.93-.36.48,0,.88.2,1.02.38.03.04.07.06.11.06.46-.02.78.1.97.35.21.27.2.64.15.81h0c-.05.09-.1.16-.14.23.04-.51-.28-.86-.62-1.03,0,0-.1-.05-.13,0-.07.1.61.58.44,1.18-.1.35-.3.48-.45.53-.02,0-.04,0-.05,0,.08-.07.12-.15.12-.24,0-.03,0-.05-.01-.08,0,0,0-.01,0-.02.09-.1.2-.25.2-.43,0-.02,0-.03,0-.05-.01-.13-.09-.31-.35-.43-.03-.01-.06-.02-.09-.04,0-.02,0-.03.01-.05.01-.05.01-.09.01-.14,0-.33-.23-.58-.38-.7,0,0-.11-.08-.24-.05-.18.05-.58.24-.66.63,0,.02,0,.04,0,.06-.03,0-.07-.01-.1-.01-.2.01-.33.08-.41.16,0-.07-.07-.12-.19-.1.08-.1.2-.24.35-.36.19-.15.42-.23.42-.27,0-.03-.08-.06-.18-.05-.12,0-.24.06-.29.08-.17.08-.31.2-.42.31v-.37s0,0,.01,0ZM11.25,24.1c-.08-.08-.21-.15-.41-.16-.04,0-.06,0-.1.01,0-.02,0-.04,0-.06-.08-.39-.48-.58-.66-.63-.12-.03-.23.05-.23.05-.16.11-.39.37-.39.7,0,.04,0,.09.02.14,0,.01,0,.03.01.05-.03.01-.06.02-.09.04-.26.12-.34.3-.35.43,0,.02,0,.04,0,.05,0,.18.11.33.2.43,0,0,0,.01,0,.02,0,.02-.01.05-.01.08,0,.09.04.18.12.24-.02,0-.03,0-.05,0-.16-.05-.35-.18-.45-.53-.18-.6.51-1.08.44-1.18-.03-.05-.13,0-.13,0-.34.17-.66.52-.62,1.03-.04-.07-.09-.14-.14-.22h0c-.05-.19-.06-.56.15-.82.19-.25.51-.36.97-.35.05,0,.09-.02.12-.06.14-.18.54-.37,1.02-.38.23,0,.66.04.93.36,0,0,0,0,.01,0v.37c-.11-.11-.25-.23-.42-.31-.05-.02-.18-.07-.29-.08-.1,0-.18.02-.18.05,0,.03.22.12.41.27.14.11.27.25.35.36-.12-.03-.19.03-.19.1ZM11.57,22.81v.15c-.08-.06-.17-.11-.26-.15.09,0,.17,0,.26,0ZM9.27,22.3c.34,0,.68.12,1.04.25.15.05.29.1.43.15-.04,0-.08,0-.12,0-.48,0-.94.18-1.17.43-.53,0-.91.15-1.15.46-.1.13-.16.28-.19.43-.08-.21-.14-.43-.14-.63,0-.62.56-1.08,1.31-1.08Z"></path><path class="cls-2" d="M13.61,22.31c.14,0,.26-.12.26-.26s-.11-.26-.26-.26-.26.11-.26.26.11.26.26.26Z"></path><path class="cls-2" d="M14.46,22.03c.14,0,.26-.12.26-.26s-.12-.26-.26-.26-.26.12-.26.26.12.26.26.26Z"></path><path class="cls-2" d="M15.33,21.84c.14,0,.26-.12.26-.26s-.12-.26-.26-.26-.26.11-.26.26.11.26.26.26Z"></path><path class="cls-2" d="M16.21,21.96c.14,0,.26-.11.26-.26s-.12-.26-.26-.26-.26.11-.26.26.12.26.26.26Z"></path><path class="cls-2" d="M16.98,22.45c.14,0,.26-.12.26-.26s-.12-.26-.26-.26-.26.12-.26.26.12.26.26.26Z"></path><path class="cls-2" d="M17.43,23.23c.14,0,.26-.12.26-.26s-.12-.25-.26-.25-.26.11-.26.25.12.26.26.26Z"></path><path class="cls-2" d="M17.42,23.62c-.14,0-.25.11-.25.25s.11.26.25.26.26-.12.26-.26-.11-.25-.26-.25Z"></path><path class="cls-2" d="M17.1,24.46c-.14,0-.26.11-.26.26s.11.26.26.26.25-.12.25-.26-.11-.26-.25-.26Z"></path></g></g><path id="Tree" class="cls-2" d="M20.7,9.31s.03-.08.03-.14c0-.1-.03-.22-.15-.34-.3-.31-.78,0-1.01.14-.02-.07-.06-.16-.13-.23.02-.04.03-.08.02-.13-.02-.18-.21-.26-.31-.31h-.02c.22.01.56.01.66-.3v-.18s.24.02.24.02c.32.07.8.18.97-.16.03-.05.04-.09.04-.14,0-.12-.07-.22-.12-.3,0,0-.01-.02-.02-.04.14-.07.51-.26.51-.64,0-.09-.02-.19-.07-.3-.17-.38-.56-.27-.77-.21,0,0-.04.01-.07.02,0,0,0-.02,0-.02,0-.04,0-.08,0-.12,0-.08-.02-.18-.09-.27-.05-.06-.12-.1-.2-.13.09-.11.15-.23.15-.38,0-.07-.01-.15-.05-.24-.04-.12-.13-.21-.24-.25-.25-.1-.56.04-.75.12-.01-.03-.03-.07-.05-.1.02-.05.03-.1.03-.16,0-.11-.03-.21-.06-.29.13-.09.34-.25.38-.47,0-.02,0-.05,0-.08,0-.1-.04-.19-.1-.27-.27-.33-.67-.19-.86-.13,0,0-.02,0-.03,0-.06-.11-.14-.25-.35-.3-.25-.06-.5.16-.69.32,0,0-.05.04-.08.07-.01-.01-.03-.03-.03-.03l-.28-.18c-.25-.05-.53.35-.59.46,0,0,0,0,0,0-.04-.08-.1-.13-.15-.16.02-.02.03-.04.03-.04.14-.12.34-.31.35-.55h0c0-.14-.06-.26-.16-.37-.14-.15-.3-.22-.46-.22-.29,0-.51.25-.66.41,0,0-.01.01-.02.02-.01-.05-.04-.1-.06-.15.01-.05.02-.1.02-.16,0-.07-.01-.13-.03-.19-.02-.04-.05-.07-.07-.1.16-.13.37-.34.37-.57,0-.06-.02-.12-.05-.18-.14-.26-.33-.31-.45-.33h0c0-.07.02-.14.02-.23,0-.21-.06-.47-.37-.55-.37-.09-.61.23-.75.41,0,0-.02.02-.04.04-.08-.08-.22-.21-.43-.18-.09-.15-.24-.25-.43-.27-.35-.05-.49.38-.58.66,0,0-.04.1-.05.14-.03,0-.05-.01-.05-.01-.1-.03-.25-.07-.4.02-.14.08-.19.21-.19.34,0,.22.13.49.23.66,0,0,.02.04.04.09-.16.03-.29.09-.37.2-.04.06-.06.12-.08.18-.02-.03-.04-.04-.06-.07.04-.24.15-1-.02-1.22-.05-.07-.12-.1-.2-.1-.04,0-.06.02-.09.03,0-.28-.06-.67-.35-.77-.22-.07-.34,0-.42.07-.18-.23-.52-.63-.9-.45-.18.08-.23.23-.23.4,0,.2.09.43.14.57,0,0,0,.02.01.03-.13.01-.34.05-.41.31,0,.04-.01.08-.01.11,0,.01,0,.02,0,.03-.21-.16-.5-.26-.82-.04-.16.11-.22.27-.22.42,0,.26.14.52.22.66-.12.05-.3.15-.33.39,0,.02,0,.05,0,.07,0,.45.49.59.76.67,0,0,.02,0,.05.02,0,0,0,0,0,0-.03.04-.16.12-.23.12,0,0-.09-.06-.09-.06-.23-.15-.7-.45-1.1-.02-.09.1-.13.2-.13.3,0,.21.17.42.27.53,0,0,.08.1.09.11,0,0-.04.09-.04.09l-.09.29s0,.05,0,.08c0,0-.04.02-.06.04,0-.06-.01-.14-.01-.14-.02-.26-.04-.62-.33-.71-.18-.05-.29.05-.37.13,0,0,0-.02,0-.02-.04-.28-.12-.75-.47-.76-.2,0-.29.19-.36.32,0,0-.01.02-.03.04-.01-.02-.02-.03-.02-.03-.11-.14-.31-.39-.6-.27-.25.1-.31.32-.31.53,0,.14.03.27.05.36,0,0,0,.04.01.07-.02,0-.04.02-.04.02-.12.05-.27.13-.33.29-.02.05-.03.09-.03.13,0,.29.35.51.63.65-.07.05-.14.1-.18.15-.16-.08-.35-.12-.53-.05-.2.08-.24.26-.24.4v.06c-.17-.04-.47-.08-.64.27-.05.12-.07.21-.07.29,0,.1.03.18.06.24.12.23.38.34.58.4-.04.06-.09.12-.1.2l.1.31c.19.22.47.11.67.02.23-.09.31-.11.37-.04,0,.02-.06.12-.14.2-.05-.01-.1-.02-.15,0-.19.03-.27.17-.31.28-.17-.15-.45-.38-.74-.32-.23.05-.29.22-.29.37,0,.07.01.14.02.18h0s-.04,0-.04,0c-.17-.04-.4-.09-.58.03-.1.06-.16.17-.19.31,0,.04,0,.08,0,.11,0,.4.42.53.63.58-.05.08-.12.17-.12.29,0,.08.03.18.13.27.35.31.69.08.85-.03h.02s.01.1.02.15c0,0,0,.06.01.09-.03,0-.07.02-.07.02-.14.04-.33.1-.42.26-.03.05-.04.11-.04.17,0,.06,0,.11.03.18.13.38.53.36.72.35,0,0,.03,0,.06,0,0,.01,0,.03,0,.03,0,.1.03.26.17.39.35.32.82-.07,1.03-.24h0s.08.05.12.08c.03.09.08.16.11.2h0s-.04.04-.04.04c-.12.12-.38.35-.38.64,0,.1.03.2.1.31.18.26.56.07.87-.08,0,0,.18-.08.21-.09h0s0,.04,0,.04c.03.11.1.37.48.3.45-.09.58-.44.67-.69.02-.07.06-.14.09-.19.03.04.17.19.17.19l.2-.03c.26-.16.45-.77.51-.98.55.26,1.06,1.04,1.14,1.25.05.13.25.46.55.94.18.28.39.62.43.72-.12.78-.48,1.36-1.02,1.64l-.22.11c-.5.25-1.26.63-1.62.93-.04,0-.07-.01-.12-.01-.3,0-.48.09-.57.15-.2-.1-.43-.16-.62-.16-.55,0-.81.27-.92.49-.18.35-.13.79.03,1.01.21.29.51.44.91.44.28,0,.45-.08.54-.14.1.05.29.13.55.13.31,0,.49-.08.59-.14.16.09.33.15.52.15.25,0,.41-.08.5-.14.1.05.27.12.51.12.28,0,.45-.08.55-.13.16.1.34.15.52.15.26,0,.41-.08.5-.14.1.05.27.12.51.12.27,0,.45-.07.54-.13.16.09.34.15.51.15.26,0,.41-.08.5-.14.1.05.27.12.51.12.27,0,.45-.07.54-.13.16.09.34.15.52.15.25,0,.41-.08.5-.14.1.05.27.12.51.12.31,0,.49-.09.58-.15.2.1.43.17.63.17.44,0,.77-.18.94-.51.18-.35.11-.79-.04-.99-.22-.3-.52-.44-.91-.44-.28,0-.45.08-.54.15-.08-.04-.21-.1-.4-.12-.16-.33-.42-.44-1.28-.8l-.12-.05c-.93-.39-1.14-.76-1.31-1.06l-.02-.04c-.16-.27-.47-1.91.18-2.91.38-.57.84-.83,1.11-.94.05.28.13.66.27.81l.23.12s.06-.04.12-.07c.02.04.04.09.04.09.11.28.27.66.57.7.25.03.35-.07.41-.16.13.13.32.32.55.31.23,0,.34-.14.4-.22.14.04.49.16.7-.15.06-.09.08-.16.08-.24,0-.18-.16-.31-.25-.38,0,0,0,0-.01,0,.04-.05.12-.13.12-.24.09,0,.17-.02.26-.07.14-.08.15-.22.16-.29h.02c.14.02.43.05.55-.22.03-.06.04-.12.04-.17.13-.05.19-.16.21-.25h0c.19.09.44.2.64.11.21-.09.23-.32.24-.46h0c.16.03.42.08.62-.06.11-.08.18-.2.21-.36,0-.04.01-.07.01-.1,0-.48-.55-.59-.78-.62ZM19.37,8.84c-.01.05-.06.09-.11.1.04-.02.08-.06.11-.1ZM19.17,8.64s-.09.08-.09.08l-.13.11-.05.12c-.06.17-.17.52-.82.64,0-.02-.02-.04-.04-.06-.09-.15-.2-.31-.23-.54-.04-.32,0-.57.04-.72.52-.05.88.02,1.02.2.01.01.15.1.15.1.03.01.12.05.13.08ZM16.15,8.66l.08.21.04.05c-.19.14-.48.06-.68,0l-.25-.02c-.11.05-.12.16-.14.23l-.02.07c-.1.02-.6-.09-.77-.19.11-.16.23-.29.34-.36,0,0,0,0,0,0,.14-.07.32-.15.47-.2.35-.11.81-.32.78-.41-.03-.08-.51.02-.87.14-.28.09-.7.25-.89.33.11-.33.29-.73.44-.75.05.11.15.12.18.12l.26-.19c.35-.33.47-.38.51-.36l.04.04.14.13c.1.04.19-.01.31-.09.07-.05.22-.14.27-.12.07.02.08.05.1.1l.12.15s.29,0,.29,0c.12-.03.38-.08.42,0,.08.19-.01.26-.22.37-.1.05-.21.11-.21.23l.05.18.03.12c-.02.06-.06.08-.13.1-.02,0-.05,0-.07.01-.08,0-.18,0-.3-.02l-.26.02s-.06-.02-.08.02c-.03.04,0,.04.02.08ZM14.23,10.48c-.13.14-.25.29-.36.42,0-.04,0-.08.01-.12.02-.32.03-.68.14-.98.07-.21.16-.38.25-.54.09.05.22.1.35.14,0,.09-.04.11-.12.14l-.26.19c-.18.23-.14.55-.02.75ZM13.62,8.02c.02-.14.06-.28.11-.43.07-.25.58-1.12.45-1.17-.12-.05-.6.8-.69,1.08-.02.08-.05.17-.08.25-.11-.21-.2-.48-.2-.68,0-.08.02-.16.06-.21.04-.04.06-.04.11-.04l.12-.02c.06-.03.08-.07.08-.12,0-.06-.02-.12-.05-.18-.05-.13-.14-.36-.14-.55,0-.06,0-.11.03-.16.03-.07.09-.12.18-.15,0,0,.05.03.05.03.1.07.18.07.24,0,0,0,.06-.18.06-.18.02-.13.08-.55.25-.55l.07.03s.11.06.19.02l.07-.05c.29-.26.37-.24.38-.23.05.03.06.2.07.29.01.13.02.24.11.29,0,0,.2.05.2.05h.1c.11.27-.1.47-.32.64-.05.05-.12.1-.1.2,0,0,.12.13.12.13l.08.06c.03.12-.34.33-.47.4l-.21.18s-.06.02-.05.06c0,.05.03.03.07.05l.17.08.06.02c.07.31-.77.74-1.14.88ZM14.11,8.11c-.09.23-.15.45-.18.55-.06.03-.12.06-.17.09,0,0-.04.02-.08.04,0,0,0-.03,0-.03,0-.19-.02-.33-.05-.44.1-.04.29-.11.49-.21ZM13.32,7.97s.02-.02.03-.03c0,0,.01,0,.02,0,0,.02,0,.05-.02.07-.01,0-.02-.02-.03-.03ZM13.48,8.37h0s0,.03-.01.03c0-.01,0-.02.01-.03ZM13.19,7.93c-.07,0-.14,0-.19.02h0c-.03-.21-.13-.65-.33-.82-.18-.15-.41,0-.54.08-.12-.25-.36-.6-.63-.66-.01-.01-.03-.03-.04-.04-.11-.09-.23-.21-.2-.39,0-.08.1-.12.19-.16.15-.07.14-.18.13-.33-.03-.34-.01-.56.18-.6.23-.06.43.18.62.43l.21.2c.13.03.21-.06.27-.14.08-.1.11-.11.13-.1.12.06.16.2.18.27-.04.08-.05.17-.05.26,0,.23.08.46.15.61-.06.02-.12.05-.19.12-.09.11-.13.25-.13.4,0,.3.15.64.26.85ZM12.82,9.68c.05.23.07.45.07.64,0,.07,0,.13,0,.18,0,.17-.11.58-.19.85-.02-.04-.46-.77-.46-.77-.22-.37-.28-.71-.29-.97,0,0,0,0,.02,0,.37.15.51.12.79.07h.07ZM13,9.05c-.05-.04-.13-.1-.19-.19-.03-.04-.17-.2-.36-.34-.33-.24-.76-.49-.8-.41-.04.08.35.34.63.59.19.17.32.38.4.53,0,.01.01.03.02.05.02.04.04.09.06.14h-.04c-.26.05-.35.07-.64-.05l-.11-.07s.01-.2.01-.2c0-.04.02-.05-.01-.08-.04-.03-.04-.01-.09,0l-.26.05c-.14.06-.37.16-.5.1-.01,0-.07-.03-.1-.13-.07-.21,0-.28.06-.35.04-.04.11-.11.09-.2-.02-.13-.15-.15-.29-.18-.27-.05-.42-.1-.42-.23,0-.08.11-.2.19-.25.03-.02.05-.06.06-.09,0-.04,0-.07-.03-.11,0-.01-.23-.33-.01-.49.21-.15.33-.03.36,0,.04.04.11.06.16.04.05-.02.09-.07.09-.13,0,0,0-.2.14-.23.12-.03.43.33.53.61.01.04.06.09.1.1.09.03.16-.01.26-.08.05-.03.17-.12.21-.1.12.1.24.56.24.7,0,.04.03.12.06.14.08.06.17.04.26.03h.12s-.03.3-.18.83ZM10.72,9.08s0,0,0,.01v.1c-.02.18-.28.39-.4.47-.06-.05-.12-.09-.17-.12-.02-.08-.11-.38-.17-.73-.11-.65-.14-.89-.22-.86-.08.03-.13.24-.05.86.02.15.04.28.07.39-.02-.02-.04-.04-.07-.05l-.21-.02s-.03.02-.04.03c-.05-.29-.17-.54-.32-.68,0-.02,0-.04-.01-.06-.02-.04-.02-.14,0-.17.02,0,.18-.22.18-.22.02-.1-.04-.17-.12-.24-.13-.13-.25-.26-.2-.39,0-.02.03-.03.09-.06l.12-.06c.07-.06.06-.14.06-.26-.01-.25,0-.51.23-.62h.06c.12.05.25.31.31.47.01.03.02.05.04.06.08.07.17.03.23,0,.12-.05.23-.08.33.01-.13.11-.18.25-.18.38s.05.26.1.36c-.09.09-.21.23-.21.4,0,.38.4.46.63.5-.05.07-.1.16-.1.29,0,.06.01.13.04.21ZM10.56,10.08s.03,0,.03,0c.28.08.87.26,1.07,1.37.08.49.11.82.11,1.03,0,.15-.01.23-.02.29-.29-.21-1.08-.93-1.08-1.81,0-.01,0-.11,0-.14,0-.32-.05-.54-.12-.73ZM8.82,8.37c-.06.02-.1.09-.14.14-.1-.22-.25-.39-.5-.45-.17-.04-.26.11-.32.23-.14-.1-.37-.24-.6-.19-.05,0-.08.03-.12.06-.22-.08-.4-.09-.56-.05,0-.04,0-.07-.02-.1,0,0-.15-.17-.15-.17-.15-.09-.26-.19-.23-.34.03-.12.13-.17.27-.2h0s.08,0,.12-.03l.24-.11.05-.12c.02-.09.04-.13.08-.15.09.17.22.33.41.44.03.21.14.37.33.45.32.14.8.05,1.07-.07.07.12.15.21.22.28,0,0,0,0,0,0-.01.01-.1.09-.1.09-.04.05-.06.14-.06.23,0,.02,0,.03,0,.05ZM5.99,9.14l-.05-.15s-.02-.05-.03-.06c-.04-.08-.07-.15-.02-.22.05-.08.13-.08.23-.08h.11s.09-.07.09-.07c.11-.09.3-.25.61-.16-.03.07-.05.14-.05.2,0,.17.09.3.18.39l-.53.88c-.12-.07-.33-.21-.43-.4l-.12-.33ZM7.69,7c-.1.11-.15.11-.16.11,0,0,0,0-.01,0-.33-.18-.44-.55-.44-.84h0s-.04-.19-.04-.19c0,0-.01-.03-.01-.05,0,.02.07.01.07.01h.13s.12-.03.12-.03c.17-.04.48-.1.89.04-.02.17-.26.7-.53.96ZM10.07,6.67h0s.02.06.04.1c0-.01-.01-.05-.04-.1ZM9.72,4.16s-.03-.17-.01-.2c.06-.02.17.08.22.11.02.01.02.03.04.04l.16.04c.16.01.48.03.73.5-.18.05-.43.15-.66.28-.19.11-.35.22-.48.31-.23-.44-.1-.69-.03-.8l.04-.11v-.16ZM9.75,5.69s0,0,0-.01h0ZM13.64,3.79s.09-.05.09-.05c.06-.04.15-.1.21-.08.08.02.09.07.11.15l.02.08c.06.12.18.37.12.76,0,0,0,0-.02-.02-.11-.05-.72-.25-1.19-.28.14-.34.48-.5.64-.56ZM12.84,4.05s0,0,0,0l-.02-.03s.02.02.03.02ZM15.65,5.26c.12-.07.28-.21.34-.38.01-.05.02-.09.02-.13,0-.1-.03-.16-.07-.22.08-.04.14-.07.2-.11.08.06.16.22.19.28.02.04.15.14.15.14.11.03.22-.04.35-.11.21-.12.37-.2.51-.09.13.1.14.18.13.23-.2.12-.34.37-.4.48-.27-.04-.53.02-.78.16-.13-.04-.52.08-.73.42-.05.09-.09.21-.12.33-.02-.03-.07-.08-.12-.13.24-.21.37-.42.37-.64,0-.08-.02-.15-.05-.22ZM17.53,5.71l-.04.13v.08s.01.08.01.14c0,.19-.05.47-.33.7-.25-.1-.48-.23-.63-.44l-.1-.23c-.03-.1-.04-.2-.04-.32.38-.23.72-.14.83-.11.02,0,.02.01.04.01l.2-.04s.09-.03.1-.03c-.02,0-.05.11-.05.11ZM16.12,5.67s0-.02,0-.04c0,.02,0,.02,0,.04h0ZM15.81,6.08h0c.06-.11.13-.17.2-.21l-.2.21ZM15.89,6.97s-.04-.03-.04-.05c-.06-.11-.09-.22-.11-.34l.16.39ZM15.04,7.1c-.02-.08-.06-.11-.1-.14.18-.1.41-.25.5-.44.01.18.06.37.16.54-.22.03-.46.25-.65.43,0,0,0,.01-.02.02,0,0,.02-.02.02-.03.06-.1.1-.2.1-.29,0-.03,0-.06-.01-.09ZM17.19,8.15s.02.04.02.04h0s-.02-.04-.02-.04ZM17.21,8.22s0-.01,0-.02c.02,0,.03-.02.03-.02h0s-.03.06-.03.06c0-.02,0-.03,0-.03ZM20.2,6l.02.23c.07.18.27.12.42.08.25-.07.37-.08.43.05.13.28-.01.42-.31.57l-.16.13c-.05.12.03.23.08.32.03.05.08.13.07.16-.07.14-.42.07-.66.01-.22-.05-.37-.08-.46,0-.12.09-.11.21-.11.28v.08c-.03.11-.19.12-.43.09-.11-.01-.21-.02-.27.06-.22-.1-.53-.13-.93-.09,0-.02-.01-.04-.03-.05-.05-.05-.13-.08-.23-.1.02-.04.03-.09.03-.15,0-.02,0-.05,0-.07.38.02,1.16.04,1.35-.41.01-.04.03-.09.03-.13,0-.1-.04-.19-.08-.27.39,0,1-.01,1.03-.42,0-.02,0-.03,0-.05,0-.24-.14-.36-.25-.42.03-.03.08-.05.1-.07.04-.03.07-.05.11-.08.17.01.24.06.26.08.03.03.02.09.01.18ZM19.4,5.03c.12-.05.41-.18.56-.13.03,0,.06.03.09.09.08.19-.02.33-.21.47-.02,0-.04.02-.06.04-.04.02-.07.05-.11.08-.15.1-.28.18-.32.3-.02.06-.04.08,0,.11l.14.1c.12.04.21.08.19.25,0,.06-.12.16-.83.16-.18,0-.26,0-.29.09-.03.09.01.15.06.22.04.06.14.2.11.26-.12.29-.87.25-1.12.24h-.1c-.05-.04-.12-.07-.19-.08.04-.09.07-.19.06-.28.11-.09.19-.2.25-.29h0s.12-.08.22-.14c.42-.26.86-.74.77-.78-.07-.04-.57.32-.85.49.02-.14.02-.27,0-.34,0-.03.02-.08.02-.08.04-.1.11-.28-.03-.42-.12-.13-.27-.07-.37-.03.07-.11.17-.24.27-.27.1-.02.16.02.25.09l.19.11c.13.04.23-.08.34-.21.17-.2.32-.37.51-.33.05,0,.07.05.11.15.02.06.05.16.16.17l.18-.05ZM18.6,3.27s-.03,0-.03,0c.03,0,.03,0,.03,0ZM17.49,3.37s-.02.02-.02.02c.02-.02.02-.02.02-.02ZM16.65,3.88h.08s.12-.13.12-.13c.04-.07.24-.3.31-.32,0,0,.11.1.11.1l.22.14.28-.16c.11-.1.32-.28.43-.26.12.03.15.09.18.16l.14.15.23-.03c.21-.08.42-.12.55.04.04.05.04.09.04.11-.03.13-.25.29-.35.34-.03.02-.06.05-.07.08-.01.03,0,.07.01.11.04.07.07.17.08.26-.37-.06-.63.24-.78.43,0,0-.05.05-.08.09-.02-.02-.05-.04-.05-.04-.08-.06-.19-.14-.34-.15-.01-.09-.06-.21-.17-.32.06-.04.13-.09.21-.14.25-.15.52-.33.48-.38-.04-.05-.36.07-.63.18-.13.06-.24.13-.3.18-.25-.08-.5.06-.66.16,0,0-.07.04-.11.06-.05-.1-.11-.2-.19-.28.16-.12.25-.25.27-.39ZM16.4,3.5s.01-.01.02-.02c0,0,0,0,0,0,0,0,0,0-.03.02ZM15.5,3.07l.26-.18c.12-.12.29-.31.46-.31.08,0,.16.04.25.13.06.05.08.11.08.16,0,.12-.16.26-.25.35l-.17.25c0,.12.08.18.14.21.07.05.11.08.1.18,0,.07-.08.17-.26.28-.01,0-.04.02-.05.03-.09.05-.2.11-.33.17-.04.02-.1.07-.11.11-.02.08.02.14.05.18.04.06.07.1.05.17-.04.11-.2.21-.28.26-.04,0-.08-.01-.12-.02,0,0-.02,0-.04,0,0-.04,0-.07,0-.07-.01-.17-.03-.41-.22-.51-.08-.04-.18-.04-.27-.01.06-.08.13-.16.2-.24.22-.25.47-.49.42-.55-.07-.08-.38.13-.64.39-.1.1-.2.21-.27.31-.01-.19-.06-.37-.15-.55,0-.02-.02-.05-.02-.05-.01-.05-.04-.13-.11-.21.09-.09.17-.08.25-.05h.08c.12.01.16-.08.2-.23.06-.17.17-.47.35-.54h.07s.06.09.08.13c.03.09.08.24.23.24ZM13.93.92l.17.11c.12.03.2-.08.29-.19.14-.2.28-.35.45-.3.16.04.17.19.14.45-.01.11-.02.2.05.26l.14.05c.08.01.19.04.29.2.07.13-.23.4-.4.51-.05.03-.08.1-.06.16.02.06.07.1.13.11.04,0,.05.02.06.03.02.03.02.08.02.12h-.18c-.31.12-.44.49-.52.72,0,0,0,.02-.01.04-.07-.02-.19-.03-.31.02.08-.16.14-.34.14-.48,0-.05,0-.09-.02-.12-.05-.14-.17-.19-.28-.21.12-.16.27-.38.27-.66,0-.14-.04-.3-.15-.46-.09-.14-.23-.14-.34-.11,0-.04.02-.07.02-.12,0-.07-.01-.15-.02-.22.04.02.08.05.13.09ZM13.78,1.32s0,0,0,0c0,.03,0,.07-.02.1.01-.03.01-.07.02-.11ZM12.12,2.53c.06-.09.21-.11.31-.11.05,0,.11-.04.14-.08.05-.1,0-.2-.1-.39-.11-.2-.29-.55-.14-.63.04-.03.1-.01.18,0h.28c.08-.05.11-.15.17-.32.05-.17.15-.48.27-.47.1.01.18.06.23.15.11.19.08.51.04.63-.02.06,0,.14.04.18.09.07.18.02.23,0,.03-.02.12-.06.14-.05.22.33.02.63-.19.89-.07.08-.12.15-.08.24.05.09.15.09.22.09.11,0,.17,0,.19.05.02.07-.1.41-.29.7-.07.03-.13.06-.17.09-.14.06-.35.15-.54.32.05-.2.16-.64.2-1.02.04-.38.05-.69-.06-.68-.05,0-.1.36-.18.75-.08.38-.19.78-.22.89-.03,0-.06,0-.09,0,0,0-.08,0-.13-.01h0c.06-.12.17-.34.17-.58,0-.19-.08-.39-.3-.55-.13-.09-.23-.06-.32,0,0-.03.02-.06.03-.08ZM11.72,2.9l.18.16c.1.02.17-.05.22-.11l.12-.1c.26.17.21.43.04.78l-.06.21c.04.21.28.21.44.21l.17.02c-.06.09-.1.19-.13.31-.12.02-.21.08-.28.16-.1.11-.12.26-.12.41-.11-.1-.23-.18-.38-.21-.03-.09-.07-.22-.1-.38-.08-.35-.17-.76-.26-.74-.06.01-.05.4,0,.75.03.15.05.28.08.38-.09.03-.15.07-.21.13-.03-.08-.07-.15-.11-.2-.05-.06-.11-.08-.16-.09-.04-.09-.09-.17-.14-.25.07-.05.08-.1.08-.12.02-.07-.03-.12-.12-.23-.23-.27-.33-.43-.3-.51.03-.07.05-.07.14-.05.07.01.16.02.24-.05.06-.07.05-.16.04-.32-.02-.25-.04-.51.11-.55.2-.05.41.23.53.38ZM10.81,3.19h0v.04s0-.03,0-.04ZM9.71,1.1s.02.04.02.04c0-.02-.02-.03-.02-.04h0ZM9.56,1.42c.02-.07.05-.08.2-.1.08,0,.17-.01.22-.09.05-.08.02-.16-.04-.32-.07-.19-.21-.53-.05-.6.19-.09.46.25.58.4l.14.14s.14.03.22-.11c.02-.05.04-.08.16-.04.14.04.17.45.14.73,0,.06.02.12.08.15.06.02.12.01.16-.04.04-.04.11-.1.13-.1.04.09.02.53-.03.84-.11-.06-.23-.08-.37-.05-.09.02-.15.08-.2.13-.15-.08-.28-.07-.38-.03-.01-.31-.07-.85-.5-.92-.2-.03-.33.12-.41.25-.06-.07-.11-.16-.09-.25ZM8.4,2.95c.02-.09.1-.14.21-.18.07-.03.14-.06.16-.14l-.06-.22c-.16-.29-.29-.6-.1-.73.25-.18.46-.03.74.28.09.1.16.17.25.16.11,0,.17-.11.23-.21.04-.08.12-.21.17-.21.24.04.25.55.26.74,0,.14,0,.22.1.25.08.03.14-.01.18-.04.07-.04.14-.09.26-.02-.01.06-.01.13-.01.19,0,.1,0,.2.01.27,0,0,0,.03,0,.06-.13-.01-.29,0-.39.22-.02.05-.03.09-.03.14,0,.15.09.32.2.46-.1-.05-.2-.07-.27-.09-.03-.11-.11-.31-.24-.54-.11-.19-.46-.58-.55-.48-.09.1.17.42.26.56.07.11.13.23.17.32-.11-.06-.23-.1-.37-.04-.21.09-.18.33-.16.48-.35-.05-.41-.1-.41-.12,0-.04.04-.08.1-.13l.17-.26c0-.16-.15-.21-.34-.26-.32-.09-.58-.19-.56-.44ZM7.71,3.92c.22-.23.46-.11.73.07l.25.11s.04,0,.05,0c.03.24.33.32.62.36-.08.2-.11.52.14.97,0,0,0,0,0,0h0c-.06.07-.08.16-.06.26.05.2.26.41.51.52.32.12.63.14.89.05h.05s.03-.03.03-.03c.01,0,.02-.01.03-.01.02.18.11.32.2.41-.07.05-.12.12-.15.2-.08-.04-.19-.06-.32-.03-.22-.3-.5-.21-.64-.15-.07-.16-.21-.42-.41-.51h-.29s-.08.04-.12.06c-.12-.26-.3-.43-.51-.48-.02,0-.03,0-.06,0,.02-.08.02-.16,0-.25-.04-.16-.22-.17-.38-.18-.3-.02-.4-.05-.4-.23l.06-.15.08-.26-.15-.26c-.19-.22-.25-.34-.15-.45ZM7.54,5.22s0-.02,0-.03c0,0,0,0,0,.03ZM4.99,5.11c.02-.05.12-.1.19-.13l.16-.11c.06-.08.04-.16.02-.3-.06-.31-.07-.51.09-.58.08-.03.15.03.27.19l.22.18c.16.04.25-.12.31-.24.03-.05.08-.15.11-.17.11,0,.17.36.19.52.03.19.05.31.16.34.15.05.25-.07.31-.14.05-.06.08-.09.1-.08.1.03.12.29.13.45.01.18.02.31.11.37.05.04.18.11.38-.03.15.15.4.16.54.17,0,0,.08.01.13.01,0,0,0,0,0,.01,0,.07-.03.14-.04.18-.5-.17-.89-.09-1.08-.04l-.08.02h-.1s-.29.12-.29.12c0,0,0,.02-.01.03-.14-.1-.33-.26-.47-.44-.23-.29-.33-.63-.42-.6-.17.07.05.52.17.7.18.25.52.56.73.69h0c0,.13.02.26.05.39-.18.07-.23.25-.26.34,0,0,0,0,0,.02-.03,0-.07.01-.07.01,0,0,0,0-.02,0-.04-.05-.07-.19-.08-.26-.03-.14-.06-.27-.15-.33-.13-.09-.29-.03-.44.03,0,0-.14.04-.16.05-.04-.04-.08-.07-.08-.09,0,0,0-.01.01-.02-.07-.09-.2-.25-.2-.25,0,0,0,0-.01,0,.07-.07.21-.15.27-.16.06,0,.14-.05.15-.11.03-.12-.06-.16-.17-.22-.58-.27-.66-.42-.64-.51ZM4.86,7.82c-.2.08-.29.11-.34.05l-.04-.09c.01-.08.12-.17.15-.2.05-.04.07-.09.06-.15-.01-.06-.06-.1-.12-.11-.14-.02-.49-.12-.6-.31-.04-.08-.03-.17.02-.28.08-.16.19-.16.4-.11h.2c.1-.05.09-.16.08-.25-.02-.16,0-.22.05-.24.15-.05.35.05.48.17l.21.28.09.12c.12.1.28.04.43-.02,0,0,.17-.05.18-.06,0,0,0,0,0,.01,0,.04.03.15.03.15.02.09.04.19.08.27-.13.06-.26.16-.3.35,0,.04-.01.09-.01.13,0,.29.25.45.37.52,0,0,.02,0,.03.02,0,.02.01.05.01.08,0,.02,0,.03,0,.04-.06.04-.11.08-.15.11-.12,0-.35,0-.49.23,0,0,0,0,0,.01-.05-.07-.12-.13-.2-.18.11-.14.23-.35.1-.51-.2-.26-.49-.14-.7-.05ZM4.46,10l-.2.09c-.19.13-.33.2-.5.05-.05-.04-.06-.07.05-.22.05-.07.14-.18.05-.29l-.21-.1c-.32-.08-.49-.17-.45-.37.02-.1.05-.12.07-.13.08-.05.24-.02.36,0h.29c.13-.07.11-.22.09-.33-.04-.21-.01-.22.05-.23.16-.04.38.15.51.26.11.09.17.15.27.13.12-.02.14-.13.15-.21.03-.11.05-.14.1-.15.11-.02.34.19.53.46,0,0,0,0,.01.01.01.02.02.04.03.06.01.03.05.15.05.15l.09.23c-.12-.04-.26-.08-.39-.1-.29-.04-1.17,0-1.18.12,0,.1.78.11,1.03.14.06,0,.12.02.18.03-.11.08-.13.21-.13.34,0,.04,0,.08,0,.12,0,0,0,.04,0,.08-.01-.01-.03-.02-.03-.02-.16-.11-.43-.28-.69-.15-.03,0-.07-.02-.13-.01ZM4.78,11.55h.03-.03ZM6.18,11.37s-.05.09-.07.13l-.04-.03s-.06-.08-.1-.06l-.19.1c-.13.11-.49.4-.65.25-.05-.05-.06-.11-.07-.21l-.08-.23-.28-.06c-.25.01-.38,0-.44-.16-.01-.04-.03-.09,0-.12.03-.06.16-.09.24-.12l.24-.13v-.32s0-.16,0-.16c.09-.06.24.02.4.14.12.08.26.17.38.08.11-.08.11-.24.1-.39,0-.07,0-.19.01-.22.1-.06.32-.09.45,0,0,0,.01,0,.02,0,.12.11.24.2.33.25-.05.14,0,.34.16.49.04.05.13.11.25.15-.08.06-.13.12-.14.2,0,0,0,.02,0,.03,0,.04.02.08.04.11-.17,0-.38.03-.55.27ZM8.45,12.16s-.01-.02-.01-.02c-.04-.08-.08-.17-.18-.2-.04-.01-.11-.01-.18.04-.12.09-.17.24-.23.39-.08.23-.17.45-.46.51-.12.02-.12.02-.15-.09-.02-.08-.07-.28-.29-.26l-.33.12c-.12.06-.44.21-.51.17-.12-.18,0-.35.23-.58l.13-.14c.07-.12-.02-.23-.06-.28-.07-.09-.12-.14,0-.3.13-.17.28-.16.45-.13.09.01.19.03.26-.05.03-.04.04-.07.04-.1,0-.08-.08-.16-.11-.19,0,0-.06-.06-.07-.08.01,0,.05-.03.05-.03.23-.12.56.06.68.13.06.04.11.06.18.04.04-.02.07-.05.09-.09.03-.08,0-.14-.05-.22l-.07-.17c.05-.05.12-.06.17-.05.06,0,.12,0,.17,0-.04.07-.08.14-.08.21,0,.04,0,.07.03.11.05.09.12.15.22.19-.36.11-.54.24-.81.44-.15.11-.47.39-.45.46.01.08.9-.44,1.27-.59.11-.05.31-.1.47-.13-.01.01-.02.03-.02.04-.11.37-.25.7-.37.81ZM8.4,10.79s.08-.09.08-.09l.09-.23c-.02-.13-.16-.14-.28-.14-.07,0-.14,0-.2,0h0s-.02,0-.03,0c-.21-.02-.39-.08-.46-.28,0,.04.09-.06.09-.06.07-.06.2-.19.1-.31l-.21-.08c-.26-.03-.34-.08-.34-.21,0-.02.06-.05.11-.08.07-.04.18-.1.18-.22l-.14-.21c-.18-.16-.24-.25-.15-.42.04-.06.08-.08.11-.08.14-.03.36.13.44.18l.08.05c.15.06.22-.1.25-.17,0,0,.03-.05.05-.08.28.09.35.34.36.49,0,.07.06.12.13.13.07,0,.13-.04.15-.1.03-.11.1-.23.13-.25.08.07.28.41.26.81,0,.06.04.12.1.14.06.02.13,0,.16-.07.03-.06.09-.12.11-.12.05.04.18.26.21.83v.08c-.06.03-.31-.06-.53-.21,0,0,0,0-.01,0-.01,0-.02-.02-.04-.02-.15-.1-.34-.22-.52-.36,0,0-.46-.34-.52-.23-.06.1.37.47.37.47.18.14.37.27.52.36.02.01.03.02.04.03.17.16.3.34.32.42-.53.18-.9.19-1,.03ZM7.93,17.36l.02.03s-.02-.02-.02-.02c0,0,0,0,0,0ZM8.14,18.65c-.3,0-.47-.13-.48-.13-.06-.04-.14-.03-.19.02,0,0-.11.12-.42.12s-.52-.1-.67-.33c-.09-.13-.14-.46,0-.71.12-.22.34-.33.66-.33.25,0,.6.12.75.32l.6.88s.08.06.1.09c-.07.03-.18.06-.35.06ZM12.33,18.65c-.27,0-.42-.12-.43-.12-.06-.05-.15-.04-.2.02,0,0-.1.12-.37.12-.24,0-.48-.13-.62-.33l-.61-.89s-.06-.06-.09-.1c.07-.02.16-.04.29-.04.27,0,.43.12.43.13.06.05.15.03.2-.03,0,0,.1-.12.37-.12.24,0,.48.12.62.32l.6.88s.06.07.09.1c-.07.02-.16.04-.29.04ZM11.05,17.05c-.11.03-.2.07-.25.1-.1-.05-.27-.13-.51-.13-.01,0-.02,0-.04,0,.26-.15.61-.14.79-.12,0,.05,0,.09,0,.14ZM12.08,17.36l.03.04s-.03-.03-.04-.04c0,0,0,0,.01,0ZM12.87,17.16c-.1-.05-.27-.13-.51-.13-.07,0-.12,0-.17.01.08-.16.21-.33.41-.33.08,0,.15.03.2.08.09.09.12.24.13.34-.02,0-.04.02-.05.03ZM16.47,18.65c-.27,0-.43-.12-.43-.12-.06-.05-.15-.04-.2.02,0,0-.1.12-.38.12-.24,0-.48-.13-.62-.33l-.61-.89s-.05-.06-.08-.09c.07-.02.17-.05.31-.05.27,0,.43.12.43.13.06.05.15.03.2-.03,0,0,.1-.12.38-.12.24,0,.48.12.62.32,0,0,.61.89.61.89.02.03.06.06.09.09-.07.03-.17.05-.32.05ZM13.94,12.02c-.75,1.14-.38,2.89-.2,3.21l.02.04c.18.32.42.76,1.44,1.18l.12.05c.67.28.92.39,1.06.54-.2.02-.33.08-.4.12-.16-.09-.33-.15-.52-.15-.11,0-.2.02-.28.04-.04-.08-.07-.16-.07-.17-.16-.32-.45-.44-.73-.55-.36-.16-.73-.31-.97-.91-.12-.32-.17-.74-.2-1.13-.01-.28-.1-1.16-.17-1.16-.07,0-.13.9-.11,1.18.03.41.08.86.22,1.21.27.71.75.91,1.12,1.07.28.12.51.21.61.49v.05c-.09-.05-.24-.1-.43-.1-.29,0-.46.08-.55.14-.16-.09-.35-.15-.53-.15-.07,0-.12,0-.18.02-.02-.13-.07-.31-.2-.44-.1-.11-.24-.16-.4-.16-.32,0-.6.25-.75.69,0,0,0,.02,0,.03,0,0-.02,0-.03.01-.15-.09-.32-.13-.49-.14,0-.06,0-.12,0-.19,0,0,0,0,0-.01,0-.02,0-.04,0-.06.01-.11.04-.22.09-.32.04-.09.1-.19.17-.3.33-.57.35-1.12.28-1.12-.08,0-.34.66-.53.97-.06.11-.13.21-.18.31-.05.1-.08.21-.1.31-.31-.04-1.01-.05-1.31.51,0,0,0,0,0,.02,0,0,0,0,0,0-.16-.09-.34-.15-.51-.15-.26,0-.41.08-.5.14,0,0-.03-.02-.04-.02.37-.26.97-.56,1.4-.77l.23-.11c.63-.32,1.05-.99,1.18-1.88,0-.08,0-.11-.48-.88-.21-.35-.48-.78-.53-.89-.09-.24-.69-1.2-1.39-1.45.13-.03.27-.07.43-.12.09-.03.15-.1.17-.18,0-.01,0-.03,0-.05,0-.07-.03-.15-.07-.22.1.02.2.03.28-.01.07-.04.16-.14.15-.34,0-.13-.02-.28-.04-.43,0,0,0,0,.01,0,.08.01.39.25.37,1.11-.04,1.28,1.29,2.17,1.37,2.2.05.01.12-.01.16-.04.1-.09.14-.3.14-.58,0-.32-.05-.73-.12-1.08-.23-1.29-.99-1.51-1.27-1.59,0,0-.07-.02-.07-.02.12-.09.26-.23.34-.4.01,0,.03.02.05.03.22.1.48,0,.67-.08v.02c0,.25-.01.78.34,1.37l.41.68.21.35c.03.06.1.08.16.06.22-.06.4-1.29.4-1.3,0-.06,0-.12,0-.2,0-.29-.05-.68-.19-1.03h0s.04.04.07.05c.08.02.15-.02.17-.1.07-.24.12-.43.15-.58,0,.04,0,.08,0,.12l.06.3c.08.1.18.06.44-.07.09-.05.2-.1.31-.15-.17.23-.32.51-.45.85-.12.33-.14.72-.16,1.06-.01.24-.02.47-.08.6,0,.02,0,.04,0,.05,0,.05.02.1.07.12.06.04.14.02.19-.04.15-.21.51-.66.84-1-.07.15-.13.29-.14.37,0,0,0,.01,0,.02,0,.04.02.09.06.12.04.03.1.04.15,0,.01,0,.22-.11.56-.08h0c-.28.12-.85.4-1.3,1.09ZM14.85,10.68c.07-.16.16-.35.24-.52.05-.07.14-.14.31-.22.05-.02.42-.25.37-.34-.05-.09-.43.06-.5.08-.18.09-.4.22-.42.24-.12.08-.27.2-.41.33-.03-.1-.06-.23.03-.35l.15-.1c.13-.06.25-.14.28-.34.19.03.36.03.42,0,.12-.06.15-.19.16-.27.02,0,.04.01.04.01.22.06.64.17.95-.1.06-.05.09-.11.09-.18,0-.03-.03-.06-.04-.09.08,0,.17.02.26.01,0,.02,0,.04,0,.07v.02c0,.06-.07.11-.15.16l-.16.17s-.01.05-.01.08c0,.08.05.14.09.18.04.04.07.07.07.14v.03c-.02.16-.19.22-.51.25l-.29.09s-.05.08-.05.12c0,.08.07.16.1.2l.06.09s-.04.04-.04.04c-.06.04-.29.09-.4.11l-.2.06c-.17-.02-.33,0-.44.03ZM18.34,12.51c-.07.11-.18.1-.36.04l-.13-.03c-.09,0-.15.07-.19.12-.05.05-.09.11-.19.11-.11,0-.26-.15-.34-.24l-.19-.14c-.12-.02-.18.09-.2.13-.03.06-.05.1-.18.09-.14-.02-.28-.36-.35-.53-.07-.17-.11-.26-.19-.29-.12-.05-.21.05-.24.08-.11-.11-.2-.52-.24-.84.21.08.54.22.73.35.16.12.45.36.53.29.08-.07-.18-.39-.36-.52-.19-.14-.38-.25-.56-.34.54-.2.9-.16.95-.12,0,0-.01.06-.01.06l-.02.14c.02.15.16.16.45.19.14.01.42.05.47.09h0s-.02.05-.04.11c-.02.05-.05.1-.05.17,0,.02,0,.05.02.07.04.1.15.13.31.17.08.03.25.07.29.11,0,0-.04.04-.04.04-.05.05-.11.11-.11.21,0,.02,0,.03,0,.05l.15.18c.1.08.14.12.14.16,0,.03-.01.04-.03.08ZM17.87,11.36s.03,0,.03,0h0s-.03,0-.03,0ZM19.25,11.11c-.03.06-.08.07-.25.05l-.26.04-.08.2c0,.07-.01.08-.04.09-.06.04-.16.02-.26,0h-.11c-.07-.04-.15-.07-.23-.09,0,0-.04-.01-.09-.03.03-.05.07-.13.07-.21,0-.06-.02-.12-.07-.18-.09-.12-.31-.15-.66-.19,0,0-.11-.02-.19-.03,0-.03.01-.06.01-.09,0-.08-.02-.16-.1-.22-.12-.1-.43-.12-.81-.04-.02-.04-.05-.12-.08-.17.02,0,.04,0,.04,0,.16-.02.41-.05.58-.19.44.25.97.22,1.23.11.03,0,.04-.02.06-.03.04.06.1.12.18.15l.33-.02c.1-.02.3-.06.35-.03.12.09.1.13.06.22l-.04.24c.03.08.1.12.18.15.19.08.23.13.17.28ZM19.67,10.76s.04.02.07.03c-.03,0-.04-.02-.07-.03ZM20.66,10.41h0s0-.03,0-.03v.02h0ZM21.19,9.99c0,.08-.04.14-.08.17-.1.07-.29.03-.4.01h-.24c-.08.06-.09.15-.1.25-.01.11-.03.21-.08.23-.08.03-.3-.07-.4-.11-.13-.06-.23-.1-.31-.02l-.06.13c-.01.05-.02.09-.04.11-.09-.11-.21-.16-.28-.19,0,0,0-.01,0-.01.02-.05.06-.12.06-.21s-.04-.22-.2-.34c-.15-.12-.39-.07-.58-.03l-.18.03s-.06-.08-.09-.15c.07-.02.14-.04.21-.06.06,0,.12-.02.18-.02.26-.01,1.25.16,1.25.02,0-.1-.58-.22-.99-.25.22-.19.29-.4.32-.51,0,0,.02-.04.02-.04,0,0,.03-.02.05-.03.03.02.06.06.08.16.02.07.04.15.12.18.08.04.14,0,.26-.08.16-.1.53-.33.67-.19.11.11.07.18.04.26-.05.13-.04.22.06.27l.14.03c.44.07.6.18.57.41Z"></path><path id="Tree-2" data-name="Tree" class="cls-2" d="M12.44,4.25s0,0,0,.01c0,.03,0,.06-.02.09.01-.03.01-.07.02-.1ZM8.33,4.02s.01.05.01.05c0-.03-.01-.04-.01-.05h0Z"></path><path id="University_of_Toronto_Mark_Stacked" class="cls-2" d="M127.84,30.42c4.04,0,6.54,3.22,6.54,6.51,0,3.64-3.16,6.64-6.74,6.64s-6.36-3-6.36-6.64,3.07-6.51,6.55-6.51M128.51,42.75c2.37,0,3.86-2.34,3.86-4.58,0-3.57-2.05-6.92-5.12-6.92-2.44,0-3.92,2.15-3.92,4.65,0,3.29,1.9,6.86,5.19,6.86ZM115.35,30.7h-2.71c-1.17,0-2.05,0-2.78-.03-.67-.03-.82-.19-.92-.32h-.35c-.06.16-.92,2.43-.95,2.56l.41.25c.41-1.11.89-1.64,3.13-1.64.19,0,.92,0,1.81.09.12,1.61.16,3.19.16,4.81,0,1.01-.03,4.8-.16,5.62-.06.38-.26.56-1.3.75-.44.06-.73.09-.98.13l.09.51c.34-.03.75-.05,1.25-.08.51-.03,1.12-.05,2.04-.05.35,0,.92-.02,1.46,0,.54.03,1.01.03,1.68.06l.06-.53c-.13,0-.31-.03-.6-.07-.35-.05-.92-.16-1.14-.38-.41-.47-.41-3.88-.41-4.8,0-.79.12-4.77.12-5.69,0-.38.13-.38,1.26-.38h.04c.51-.01.65,0,.84,0,2.25,0,2.31.54,2.72,1.64l.41-.25c-.03-.13-.47-2.4-.54-2.56h-.35c-.1.13-.25.28-.92.32-.87.04-1.89.03-2.92.03h-.47ZM94.52,30.67c-.51.03-.89.03-1.52.03-.32,0-.63,0-.95-.03-.31-.03-.37-.03-.67-.06v.54c1.83.34,2,.63,1.94,4.3v2.25c0,.85-.06,3.39-.16,4.11-.09.82-.44.88-.91.98-.26.06-.54.13-.73.16v.48c.47,0,.95-.03,1.42-.06.48-.04,1.11-.07,1.58-.07s.98.03,1.43.07c.41,0,.69.03.88.06v-.54c-2.5-.44-2.5-.79-2.47-2.91v-5.34l.03-1.01s0,.02,9.3,9.86h.65c-.06-1.04-.06-3.73-.06-4.9,0-1.67-.01-6,.06-6.54.11-.82,1.2-.89,1.8-.89v-.48c-1.36,0-2.11.03-2.7-.03-.57-.06-.98-.09-1.33-.09-.29,0-.6-.03-.79,0l-.1.48c2.12.13,2.07.31,2.07,5.09,0,.57-.02,3.36-.02,3.9l-8.76-9.33ZM83.07,30.42c4.04,0,6.54,3.22,6.54,6.51,0,3.64-3.16,6.64-6.74,6.64s-6.35-3-6.35-6.64,3.07-6.51,6.55-6.51ZM83.74,42.75c2.37,0,3.86-2.34,3.86-4.58,0-3.57-2.05-6.92-5.12-6.92-2.43,0-3.92,2.15-3.92,4.65,0,3.29,1.9,6.86,5.18,6.86ZM63,30.61c.41.03.79.06,1.2.06.38.03.79.03,1.17.03.28,0,1.01-.06,1.74-.13.73-.06,1.27-.06,1.71-.06,2.69,0,4.4,1.45,4.4,3.41,0,1.77-1.62,2.85-2.88,3.16,2.62,3.8,3.1,4.36,4.11,5.31.12.13.92.86,1.9.92l-.03.48c-2.18,0-3.26-.86-3.83-1.3-1.93-1.52-3.82-4.52-4.17-5.15-.54,0-.76,0-1.68-.06v1.83c0,.82-.03,2.66.22,3.16.16.29,1.11.57,1.74.76l.03.48c-.76-.13-1.96-.22-2.78-.22-.44,0-2.4.13-2.82.16l-.09-.38c.19-.03,1.33-.28,1.61-.82.22-.48.19-3.13.19-3.98v-3.04c0-3.92-.19-3.98-1.77-4.08l.03-.54ZM66.66,36.55c.38.06.98.06,1.36.06.47,0,3.13,0,3.13-2.53,0-1.17-.85-2.88-3.1-2.88-1.33,0-1.33.16-1.36,2.31l-.03,3.04ZM54.21,30.42c4.05,0,6.54,3.22,6.54,6.51,0,3.64-3.16,6.64-6.73,6.64s-6.36-3-6.36-6.64,3.07-6.51,6.55-6.51ZM54.87,42.75c2.37,0,3.86-2.34,3.86-4.58,0-3.57-2.05-6.92-5.12-6.92-2.43,0-3.92,2.15-3.92,4.65,0,3.29,1.9,6.86,5.19,6.86ZM41.42,30.7h-2.71c-1.17,0-2.05,0-2.78-.03-.67-.03-.82-.19-.92-.32h-.35c-.06.16-.92,2.43-.95,2.56l.41.25c.41-1.11.89-1.64,3.13-1.64.19,0,.92,0,1.8.09.13,1.61.16,3.19.16,4.81,0,1.01-.03,4.8-.16,5.62-.06.38-.25.56-1.29.75-.44.06-.73.09-.98.13l.09.51c.34-.03.75-.05,1.25-.08.51-.03,1.12-.05,2.04-.05.35,0,.92-.02,1.45,0,.54.03,1.01.03,1.67.06l.07-.53c-.13,0-.31-.03-.6-.07-.35-.05-.92-.16-1.14-.38-.41-.47-.41-3.88-.41-4.8,0-.79.13-4.77.13-5.69,0-.38.13-.38,1.26-.38h.04c.51-.01.65,0,.84,0,2.25,0,2.31.54,2.72,1.64l.41-.25c-.03-.13-.47-2.4-.54-2.56h-.35c-.09.13-.25.28-.92.32-.87.04-1.89.03-2.92.03h-.47ZM123.11,19.55c-.82.08-1.01.08-1.92.08l-.96-.02-.99-.03-.33.02-.26.03v.24h.04c.25.02.48.04.59.19.14.22.16.45.16,2.44,0,.94-.08,2-.11,2.15-.05.22-.36.3-.58.34h-.04s-.02.3-.02.3h.05c.56-.05,1.17-.06,1.33-.06h.49s.91.06.91.06v-.05s0-.28,0-.28h-.07c-.65-.07-.87-.18-.94-.26-.07-.08-.09-.42-.09-.78,0-.1,0-.21,0-.31,0,0,.02-.84.03-1.04.07,0,.46-.02.46-.02.51,0,1.14.12,1.3.19.09.03.17.21.2.46v.04h.29v-.04c.05-.58.04-1.16.03-1.6v-.05h-.3v.04c-.08.41-.11.58-1.21.58-.33,0-.43-.01-.75-.05,0,0-.01,0-.03,0,0-.1,0-.21,0-.33,0-.13,0-.26,0-.4,0,0,.02-1.17.02-1.35.32-.04.59-.05.68-.05.61,0,1.15.11,1.37.28.17.13.25.36.29.55v.04s.32-.02.32-.02v-.05c0-.09,0-.4.02-.67l.03-.6h-.05ZM114.53,19.51c1.86,0,2.97,1.47,2.97,2.9,0,1.6-1.4,2.96-3.06,2.96s-2.89-1.3-2.89-2.96c0-1.55,1.39-2.9,2.97-2.9ZM114.83,24.91c1.04,0,1.68-1.02,1.68-1.96,0-1.47-.84-2.99-2.25-2.99-1.12,0-1.71,1-1.71,1.99,0,1.45.85,2.96,2.28,2.96ZM103.97,19.62v.28h.06c.28.02.67.03.67.26,0,.07-.12.4-1.19,1.95-.46-.55-1.48-1.86-1.48-2.03,0-.06,0-.14.65-.15h.04v-.33h-.54s-1.04.03-1.04.03l-1.12-.02v.3h.04c.28,0,.45.04.58.13.34.24,1.56,1.79,1.6,1.86,0,0,.48.63.53.69.03.4.06.85.06,1.4,0,.85,0,1.02-.79,1.05h-.04s-.02.28-.02.28h.04c.12.01.48-.01.83-.04l.6-.04.45.02h.09s.62.03.62.03v-.05s0-.24,0-.24h-.04c-.77-.07-.78-.17-.79-.32,0,0,0-.06,0-.06-.02-.35-.03-.74-.03-1.16,0-.32,0-.65.02-1.01.02-.02,1.11-1.69,1.11-1.69.36-.54.55-.84,1.3-.85h.04v-.33h-.04c-.1-.01-.4,0-.67.02l-.37.02-.43-.03-.3-.02h-.43s-.05-.01-.05-.01v.05ZM98.96,19.46h-.18v.02s-.09.11-.39.12h-1.14s-1.59.01-1.59.01h-1.24c-.29-.03-.35-.1-.38-.13v-.02h-.22v.03c-.04.06-.42,1.07-.44,1.13v.03s.25.16.25.16l.02-.05c.18-.47.37-.69,1.36-.69.32,0,.58.02.76.04.06.77.07,1.5.07,2.06s-.02,2.12-.07,2.46c-.02.12-.05.2-.54.29,0,0-.35.04-.35.04l-.13.02.06.31.47-.04h.13s.91-.03.91-.03h.14s.5,0,.5,0h.38s.41.03.41.03v-.04s.04-.28.04-.28l-.25-.03h-.06c-.24-.04-.41-.1-.48-.16-.06-.07-.17-.43-.17-2.07l.03-1.17.03-1.33c0-.11,0-.12.52-.12h.33s.07,0,.07,0c.91,0,.98.19,1.14.61l.05.13.26-.16-.06-.3c-.09-.45-.16-.82-.19-.86v-.03h-.04ZM89.52,19.63v.28h.04c.74.03.86.18.92.33.1.25.12,1.85.12,2.45v.1c0,.49,0,1.62-.15,1.89-.05.09-.24.24-.97.29h-.04v.29l.89-.03h.82l1.36.04v-.05s-.02-.27-.02-.27h-.04c-.6,0-.79-.01-.86-.24-.04-.12-.05-.66-.05-1.59,0-2.2.01-2.79.13-3,.15-.25.68-.21.83-.2h.05s0-.33,0-.33h-.67s-.95.03-.95.03l-.62-.02h-.27s-.49-.03-.49-.03h-.05v.05ZM84.51,21.15c0,.96.82,1.3,1.42,1.54l.05.02c1.03.42,1.5.61,1.5,1.32,0,.42-.31.87-1,.87-.6,0-1.05-.26-1.31-.47-.32-.27-.41-.67-.44-.81v-.04h-.35l.02.06c.19.62.26.9.24,1.61v.05l.27.02v-.03s.07-.14.14-.14.26.05.35.07h.04s.08.03.08.03c.14.05.34.1.69.1,1.38,0,2.12-.84,2.12-1.63,0-1.11-1.09-1.54-1.81-1.83-.69-.27-1.21-.51-1.21-1.07s.43-.92,1.06-.92c.56,0,.97.32,1.07.43.23.21.29.46.34.7v.04s.05.01.05.01h.25l-.08-.74c0-.27.05-.55.08-.67v-.05s-.24-.04-.24-.04c0,0-.15.1-.18.12-.52-.14-.77-.18-1.13-.18-1.19,0-2.02.66-2.02,1.61ZM80.53,19.55c1.19,0,2.01.63,2.01,1.54,0,.74-.64,1.24-1.26,1.41,1.14,1.61,1.35,1.86,1.79,2.27.02.01.37.36.82.39h.05s-.02.3-.02.3h-.04c-.98,0-1.47-.37-1.74-.58-.86-.67-1.7-1.97-1.86-2.25-.05,0-.59-.02-.68-.03v1.02c0,.38,0,.94.1,1.1.06.11.51.24.75.31h.03s.02.31.02.31h-.06c-.34-.07-.87-.11-1.23-.11-.2,0-1.06.06-1.26.07h-.04s-.06-.25-.06-.25h.05c.12-.03.58-.14.69-.34.09-.18.08-1.17.08-1.6v-1.46c0-1.69-.07-1.7-.75-1.74h-.04s.02-.34.02-.34h.08s.5.03.5.03h.52c.12.01.46-.01.77-.04h0l.77-.03ZM79.62,22.2c.17.02.41.02.56.02.5,0,1.35-.14,1.35-1.06,0-.49-.36-1.22-1.34-1.22-.55,0-.55.02-.56.96,0,0-.01,1.21-.01,1.29ZM76.27,19.57c-.69.04-1.79.06-2.51.06-.44,0-1.54-.03-1.95-.04h-.05v.28h.04c.48.09.51.1.54.21.05.13.11.64.11,2.36,0,.73-.05,1.89-.13,2.28-.04.19-.28.25-.65.29h-.05s.04.32.04.32h.05c.76-.09,1.68-.09,2.23-.09l2.26.03.02-.03c.12-.19.3-.47.43-1.38v-.05s-.26-.02-.26-.02v.04c-.2.52-.59,1.05-1.96,1.05-.48,0-.69-.07-.96-.17-.03-.16-.05-.4-.06-1.09,0,0-.01-.84-.01-1.04.36-.05.7-.05.84-.05,1.11,0,1.19.09,1.34.76v.04h.28v-.05c-.01-.75-.01-.92.03-1.7v-.05s-.3,0-.3,0v.04c-.12.41-.21.5-.37.52-.81.1-1.6.07-1.79.06,0-.07-.03-.75-.03-.75,0-.36.03-.92.1-1.32.29-.06.85-.11,1.09-.11.62,0,.99.08,1.16.26.13.14.13.36.12.59v.05s.32.04.32.04v-.05c0-.06.04-.29.07-.45l.03-.21c.05-.29.05-.44.05-.58v-.05h-.05ZM64.03,19.64l.02.25h.04c.76.1.79.1,1.41,1.37l1.27,2.59s0,.02,0,.02c.22.45.54,1.13.65,1.52v.03h.29v-.03c.2-.56.34-.96.79-1.84l1.37-2.69c.32-.63.46-.79,1.07-.92h.04v-.32h-.05c-.35.02-.69.02-1.04,0,0,0-1.08-.03-1.08-.03v.04s-.02.29-.02.29h.05c.29,0,.66.03.66.34,0,.17-.12.45-.2.63l-.02.05c-.28.63-.46.98-.64,1.35l-.63,1.29s-.09.2-.15.32c-.62-.99-1.73-3.65-1.74-3.81,0-.06.01-.07.48-.13l.15-.02v-.31h-.87s-.47,0-.47,0c-.33,0-.98-.02-1.33-.04h-.05s0,.05,0,.05ZM60.21,19.63v.28h.04c.74.03.86.18.92.33.1.25.12,1.85.12,2.45v.1c0,.49,0,1.62-.15,1.89-.05.09-.24.24-.97.29h-.04v.29l.9-.03h.82l1.36.04v-.05s-.02-.27-.02-.27h-.04c-.6,0-.79-.01-.86-.24-.03-.12-.06-.66-.06-1.59,0-2.2.02-2.79.14-3,.15-.25.68-.21.83-.2h.05s0-.33,0-.33h-.67s-.95.03-.95.03l-.62-.02h-.27s-.49-.03-.49-.03h-.05v.05ZM56.96,19.54h-.04v.04l-.05.26h.05c1.09.07.92.09.95,2.35,0,0,.01,1.36,0,1.52-.08-.08-3.92-4.09-3.92-4.09v-.02s-.64.01-.64.01h-.42s-.04-.02-.04-.02l-.38-.03v.05s0,.28,0,.28h.03c.78.15.92.24.89,1.84l-.02.99c0,.36-.04,1.48-.08,1.79-.04.32-.16.35-.37.39,0,0-.37.08-.37.08v.04s0,.26,0,.26l1.32-.06.63.03s.44.03.44.03v-.05s0-.28,0-.28h-.04c-1.08-.19-1.08-.31-1.07-1.23l.03-2.34s0-.2.01-.33c.21.22,4.1,4.25,4.07,4.26v.02s.38,0,.38,0v-.05c-.03-.46-.03-1.64-.03-2.15,0-.76.04-2.55.07-2.77.05-.38.37-.47.69-.47h.05v-.3h-.05c-.61,0-.92.04-1.18.01l-.18-.02-.42-.02h-.36ZM46.69,19.6h-.33c-.39,0-1.16.02-1.28.04h-.04s.02.31.02.31h.04c.37,0,.49,0,.58.06.11.07.19.72.19,1.58l-.07,1.85c0,1.27.82,1.94,2.35,1.94,2.44,0,2.56-1.3,2.61-4.01v-.82s.01-.03.01-.03c.01-.4.02-.56.67-.6h.04s.02-.32.02-.32h-.13s-.99.03-.99.03l-.76-.02h-.34s0,.04,0,.04v.28h.05c.28,0,.57.02.69.14.18.17.23.93.23,1.31v.5c0,1.88-.13,3.02-1.87,3.02-1.6,0-1.6-1.27-1.6-1.88v-1.05c0-1.96.08-1.97.95-2.05h.04v-.33h-.05c-.22-.01-.71,0-1.06,0Z"></path><g><path class="cls-2" d="M42.87,54.34c.02-.25.02-.55.02-.68,0-.79-.29-.98-1.09-1.08v-.26c.08,0,.34.02.51.03.94.05.97.05,1.41.04.72,1.52.9,1.88,1.61,3.18.11.17.66,1.2.67,1.21.23-.44.23-.45.59-1.15l.5-.96,1.15-2.28h1.65v.26c-.71.11-.86.16-.86,1.17,0,.32.04,3.3.17,3.86.08.32.2.39.76.41v.25h-1.18c-.82,0-1.02,0-1.44.04l-.03-.25c.68-.18.89-.25.89-1.31,0-.94-.06-2.26-.13-3.2h-.02c-1.22,2.31-1.68,3.3-2.28,4.7h-.2c-.26-.83-.37-1.03-1.41-3-.25-.48-.65-1.22-.76-1.45h-.02c0,.32-.02.37-.05.74-.08.97-.14,1.79-.14,2.65,0,.63.04.77.88.91l-.02.21c-.24,0-.46,0-.65,0-.19,0-.37,0-.52,0-.23,0-.43,0-.62,0-.17,0-.34.02-.51.03l.02-.23c.91-.12.93-.56,1-1.72l.12-2.1Z"></path><path class="cls-2" d="M52.96,58.13c.33-.04.76-.08.9-.31.18-.33.18-1.93.18-2.45,0-.44,0-2.25-.14-2.53-.05-.1-.12-.26-.86-.26v-.26c.13,0,.51,0,.86.02.36.02.68.03.73.03.24,0,1.09-.03,1.34-.04v.3c-.47,0-.63.03-.73.14-.23.26-.23,1.92-.23,2.41,0,.44,0,2.26.06,2.54.07.29.12.35.85.4l-.02.24-1.53-.02c-.72-.02-1.1,0-1.4.02v-.24Z"></path><path class="cls-2" d="M59.3,56.72c.11.47.24.78.94,1.11.41.18.93.31,1.33.31.23,0,.95-.07.95-.99,0-.79-.67-1.08-1.54-1.38-.87-.31-1.6-.7-1.6-1.73s.83-1.71,2.01-1.71c.21,0,1.17.12,1.33.12.1,0,.2-.02.27-.07l.16.04c0,.07-.04.54-.04.56,0,.09.02.54.02.56v.29h-.2c-.22-1.23-1.52-1.23-1.65-1.23-.89,0-1.1.63-1.1,1.05,0,.49.19.84,1.35,1.24.78.29,1.84.68,1.84,1.9,0,.64-.35,1.69-2.2,1.69-.48,0-.92-.06-1.38-.15-.02,0-.09-.02-.12-.02-.09,0-.1.05-.1.09h-.26c-.03-.52-.09-.83-.27-1.59l.23-.06Z"></path><path class="cls-2" d="M66.81,56.72c.11.47.24.78.94,1.11.41.18.93.31,1.33.31.23,0,.95-.07.95-.99,0-.79-.67-1.08-1.54-1.38-.87-.31-1.6-.7-1.6-1.73s.83-1.71,2.01-1.71c.21,0,1.17.12,1.33.12.1,0,.2-.02.27-.07l.16.04c0,.07-.04.54-.04.56,0,.09.02.54.02.56v.29h-.2c-.22-1.23-1.52-1.23-1.65-1.23-.89,0-1.1.63-1.1,1.05,0,.49.19.84,1.35,1.24.78.29,1.84.68,1.84,1.9,0,.64-.35,1.69-2.2,1.69-.48,0-.92-.06-1.38-.15-.02,0-.09-.02-.12-.02-.09,0-.1.05-.1.09h-.26c-.03-.52-.09-.83-.27-1.59l.23-.06Z"></path><path class="cls-2" d="M73.99,58.13c.33-.04.76-.08.9-.31.18-.33.18-1.93.18-2.45,0-.44,0-2.25-.14-2.53-.05-.1-.12-.26-.86-.26v-.26c.13,0,.51,0,.86.02.36.02.68.03.73.03.24,0,1.09-.03,1.34-.04v.3c-.47,0-.63.03-.73.14-.23.26-.23,1.92-.23,2.41,0,.44,0,2.26.06,2.54.07.29.12.35.85.4l-.02.24-1.53-.02c-.72-.02-1.1,0-1.4.02v-.24Z"></path><path class="cls-2" d="M80.32,56.72c.11.47.24.78.94,1.11.41.18.93.31,1.33.31.23,0,.95-.07.95-.99,0-.79-.67-1.08-1.54-1.38-.87-.31-1.6-.7-1.6-1.73s.83-1.71,2.01-1.71c.21,0,1.17.12,1.33.12.1,0,.2-.02.27-.07l.16.04c0,.07-.04.54-.04.56,0,.09.02.54.02.56v.29h-.2c-.22-1.23-1.52-1.23-1.65-1.23-.89,0-1.1.63-1.1,1.05,0,.49.19.84,1.35,1.24.78.29,1.84.68,1.84,1.9,0,.64-.35,1.69-2.2,1.69-.48,0-.92-.06-1.38-.15-.02,0-.09-.02-.12-.02-.09,0-.1.05-.1.09h-.26c-.03-.52-.09-.83-.27-1.59l.23-.06Z"></path><path class="cls-2" d="M87.84,56.72c.11.47.24.78.94,1.11.41.18.93.31,1.33.31.23,0,.95-.07.95-.99,0-.79-.67-1.08-1.54-1.38-.87-.31-1.6-.7-1.6-1.73s.83-1.71,2.01-1.71c.21,0,1.17.12,1.33.12.1,0,.2-.02.27-.07l.16.04c0,.07-.04.54-.04.56,0,.09.02.54.02.56v.29h-.2c-.22-1.23-1.52-1.23-1.65-1.23-.89,0-1.1.63-1.1,1.05,0,.49.19.84,1.35,1.24.78.29,1.84.68,1.84,1.9,0,.64-.35,1.69-2.2,1.69-.48,0-.91-.06-1.38-.15-.02,0-.09-.02-.12-.02-.09,0-.1.05-.1.09h-.26c-.03-.52-.09-.83-.27-1.59l.23-.06Z"></path><path class="cls-2" d="M96.19,57.03c-.07.17-.23.56-.23.7,0,.36.46.41.73.45v.22c-.07,0-.36,0-.64-.02-.28,0-.54-.02-.56-.02-.12,0-.52,0-.67,0v-.19c.15-.03.39-.08.58-.38.34-.54,2-4.63,2.13-4.96.1-.24.15-.41.21-.59h.25c.06.19.12.41.23.72.2.57,1.17,3.05,1.36,3.56.56,1.55.72,1.58,1.11,1.64v.19c-.22-.02-.44-.04-.85-.04-.6,0-1.05.05-1.35.07v-.22c.25-.04.48-.13.48-.36,0-.13-.47-1.4-.52-1.53-.17-.02-.28-.03-.69-.03-.36,0-.82,0-1.28.07l-.29.69ZM96.65,55.88c.26.04.63.09,1.04.09.32,0,.47-.02.62-.04-.26-.71-.53-1.44-.85-2.09l-.82,2.04Z"></path><path class="cls-2" d="M103.71,53.68c-.02-1.02-.14-1.03-.68-1.08v-.22h2.57l.06.22s-.11,0-.15.02c-.78.12-.83.14-.83,2.57,0,1.68.12,2.13.51,2.44.4.33.92.38,1.24.38.16,0,1.37,0,1.71-.91.21-.56.27-1.65.27-2.84,0-1.57-.18-1.58-.82-1.62l-.04-.27.52-.02c.14,0,.32.02.51.02h.94v.27c-.21,0-.49.02-.57.2-.07.16-.07,1.17-.07,1.42,0,.84-.11,2.53-.4,3.18-.41.87-1.67,1-2.4,1-.9,0-2.4-.21-2.4-1.9,0-.25.05-1.49.05-1.77l-.03-1.1Z"></path><path class="cls-2" d="M117.62,53.81c-.13-.29-.55-1.19-1.96-1.19-1.26,0-2.37.91-2.37,2.7s1.25,2.79,2.49,2.79c.42,0,.99-.13,1.15-.43.08-.15.08-.5.08-.67,0-1.3-.03-1.3-1.06-1.3l.03-.28c.27,0,1.46-.02,1.71-.03l.66-.03v.27c-.34.06-.37.15-.37,1.22,0,1,.08,1.05.22,1.15v.13c-.52.11-1.93.3-2.53.3-2.68,0-3.48-1.83-3.48-3.07,0-2.15,1.96-3.1,3.62-3.1.56,0,.91.1,1.3.2.15.03.17,0,.38-.19h.16c.05.91.11,1.24.15,1.53h-.19Z"></path><path class="cls-2" d="M122.4,57.03c-.07.17-.23.56-.23.7,0,.36.46.41.73.45v.22c-.07,0-.36,0-.64-.02-.28,0-.54-.02-.56-.02-.12,0-.52,0-.67,0v-.19c.15-.03.39-.08.58-.38.34-.54,2-4.63,2.13-4.96.1-.24.15-.41.21-.59h.25c.06.19.12.41.23.72.2.57,1.16,3.05,1.36,3.56.56,1.55.72,1.58,1.11,1.64v.19c-.22-.02-.44-.04-.85-.04-.6,0-1.05.05-1.35.07v-.22c.25-.04.48-.13.48-.36,0-.13-.47-1.4-.52-1.53-.17-.02-.28-.03-.69-.03-.36,0-.82,0-1.28.07l-.29.69ZM122.87,55.88c.26.04.62.09,1.04.09.32,0,.47-.02.63-.04-.26-.71-.53-1.44-.85-2.09l-.82,2.04Z"></path></g><rect class="cls-2" x="36.66" y="48.13" width="95.67" height=".5"></rect></svg>